<svg xmlns="http://www.w3.org/2000/svg" viewBox="0 0 128 128"><g transform="translate(24 14) rotate(8 40 50)"><ellipse cx="38" cy="104" rx="24" ry="5" fill="#000" opacity=".12"/><rect x="30" y="4" width="16" height="16" rx="4" fill="#6b4f3a"/><rect x="26" y="16" width="24" height="10" rx="4" fill="#9a7b5b"/><path d="M18 28h40l8 56c2 11-6 18-28 18S8 95 10 84z" fill="#bfe6ff" stroke="#8ecae6" stroke-width="3"/><path d="M28 56c0 6 6 11 10 16 3 3 5 6 5 10" fill="none" stroke="#ffffff" stroke-width="4" stroke-linecap="round"/><path d="M48 50c0 4 4 8 6 11 2 2 3 5 3 8" fill="none" stroke="#ffffff" stroke-width="3" stroke-linecap="round"/></g></svg>
