<svg xmlns="http://www.w3.org/2000/svg" viewBox="0 0 128 128"><defs><linearGradient id="a" x1="0" y1="0" x2="0" y2="1"><stop offset="0" stop-color="#d8f8ff"/><stop offset="1" stop-color="#7ba2ff"/></linearGradient></defs><g transform="translate(26 12) rotate(12 36 52)"><ellipse cx="34" cy="108" rx="22" ry="5" fill="#000" opacity=".12"/><rect x="28" y="4" width="14" height="16" rx="4" fill="#8a5a32"/><rect x="24" y="16" width="22" height="10" rx="4" fill="#b08968"/><path d="M22 26h26l12 54c3 13-6 24-25 24S7 93 10 80z" fill="url(#a)" stroke="#bfd4ff" stroke-width="3"/><path d="M27 50l8 6 10-12 5 10 7 4-9 6-4 12-8-9-11 3 3-11-7-8z" fill="#fff4b4" opacity=".8"/></g></svg>
