<svg xmlns="http://www.w3.org/2000/svg" viewBox="0 0 64 64" role="img" aria-label="Requisitenwusler">
  <defs>
    <filter id="s" x="-20%" y="-20%" width="140%" height="140%">
      <feDropShadow dx="0" dy="2" stdDeviation="1.4" flood-color="#140b12" flood-opacity="0.55"/>
    </filter>
  </defs>
  <g filter="url(#s)">
    <path d="M22 40c-3-8 1-18 10-18s14 8 11 18c-2 7-6 10-11 10s-8-3-10-10Z" fill="#6f4f8f"/>
    <path d="M24 27 15 19l12 2Zm16 0 9-8-12 2Z" fill="#8a68ab"/>
    <circle cx="28" cy="34" r="3" fill="#f6dc83"/>
    <circle cx="38" cy="34" r="3" fill="#f6dc83"/>
    <path d="M28 43c3 2 7 2 10 0" fill="none" stroke="#2a1425" stroke-width="3" stroke-linecap="round"/>
    <path d="M20 45 11 51M44 45l9 6" stroke="#6f4f8f" stroke-width="4" stroke-linecap="round"/>
  </g>
</svg>
