<svg xmlns="http://www.w3.org/2000/svg" viewBox="0 0 64 64" role="img" aria-label="Kabelbeißer">
  <defs>
    <filter id="s" x="-20%" y="-20%" width="140%" height="140%">
      <feDropShadow dx="0" dy="2" stdDeviation="1.4" flood-color="#061316" flood-opacity="0.55"/>
    </filter>
  </defs>
  <g filter="url(#s)">
    <path d="M20 39c-1-11 5-18 14-17 9 1 13 10 9 19-3 7-8 9-14 8-5-1-8-4-9-10Z" fill="#3f8f8a"/>
    <path d="M21 31c-7-4-10-8-8-12 6 2 10 5 13 10Zm22 2c8-3 12-6 13-11-7 0-12 2-16 7Z" fill="#56b7ad"/>
    <circle cx="29" cy="34" r="2.5" fill="#ffe66d"/>
    <circle cx="39" cy="35" r="2.5" fill="#ffe66d"/>
    <path d="M31 43h9" stroke="#152d2d" stroke-width="3" stroke-linecap="round"/>
    <path d="M12 52c10-9 23 3 39-8" fill="none" stroke="#25262c" stroke-width="4" stroke-linecap="round"/>
    <path d="M49 42l5-4m-4 8 6 1" stroke="#ffe66d" stroke-width="2" stroke-linecap="round"/>
  </g>
</svg>
