<svg xmlns="http://www.w3.org/2000/svg" viewBox="0 0 64 64" role="img" aria-label="Kulissenkrabbler">
  <defs>
    <filter id="s" x="-20%" y="-20%" width="140%" height="140%">
      <feDropShadow dx="0" dy="2" stdDeviation="1.4" flood-color="#160909" flood-opacity="0.55"/>
    </filter>
  </defs>
  <g filter="url(#s)">
    <path d="M18 40c1-9 8-15 17-14 8 1 13 8 11 16-2 7-8 11-16 10-8-1-13-5-12-12Z" fill="#8f3e4b"/>
    <path d="M23 29 17 18l12 7Zm20 6 12-4-10 10Z" fill="#b95765"/>
    <circle cx="30" cy="37" r="2.5" fill="#ffd1a1"/>
    <circle cx="39" cy="38" r="2.5" fill="#ffd1a1"/>
    <path d="M19 45 9 48m12-13-11-3m36 15 10 3m-8-13 10-2" stroke="#8f3e4b" stroke-width="4" stroke-linecap="round"/>
    <path d="M30 46c3 2 7 2 10 0" fill="none" stroke="#2a1118" stroke-width="3" stroke-linecap="round"/>
  </g>
</svg>
