<svg xmlns="http://www.w3.org/2000/svg" viewBox="0 0 128 128"><path fill="#1C1A19" d="M50 12 L40 22 L36 38 L36 66 L40 92 L48 116 L58 116 L56 88 L58 66 L70 66 L72 88 L70 116 L80 116 L88 92 L92 66 L92 38 L88 22 L78 12 Z"/><path fill="#1C1A19" d="M36 42 L22 54 L18 70 L28 78 L40 70 L42 56 Z"/><path fill="#1C1A19" d="M92 42 L106 56 L110 74 L100 82 L88 72 L86 56 Z"/><path fill="#F1E9DB" d="M46 18 L42 28 L42 44 L48 54 L64 56 L80 54 L86 44 L86 28 L82 18 Z"/><path fill="#1C1A19" d="M52 34 L46 38 L52 46 L58 40 Z"/><path fill="#1C1A19" d="M76 34 L70 40 L76 46 L82 38 Z"/><path fill="#8B2E24" d="M88 58 L118 44 L120 50 L102 70 L114 98 L108 100 L92 74 Z"/><path fill="#B54434" d="M84 18 L92 28 L86 34 L78 22 Z"/></svg>