<svg xmlns="http://www.w3.org/2000/svg" width="32" height="32" viewBox="0 0 32 32" shape-rendering="geometricPrecision">
  <rect width="32" height="32" fill="none"/>
  
<rect x="5" y="22" width="22" height="3" rx="1" fill="#5c3a20"/>
<rect x="9" y="12" width="3" height="12" fill="#7a4f2b"/>
<rect x="20" y="12" width="3" height="12" fill="#7a4f2b"/>
<path d="M8 12 C12 7, 20 7, 24 12 L22 14 C19 11, 13 11, 10 14 Z" fill="#7a4f2b"/>
<path d="M10 10 C13 7, 18 7, 22 10 C22 13, 19 15, 16 15 C12 15, 10 13, 10 10 Z" fill="#2a2118"/>
<path d="M11 9 C12 6, 16 5, 20 7 L23 11 L20 13 C17 11, 13 11, 11 12 Z" fill="#b6782f"/>
<rect x="15" y="14" width="3" height="4" fill="#c9a066"/>

</svg>
