<svg xmlns="http://www.w3.org/2000/svg" viewBox="0 0 32 32">
  <path d="M8 27V5.5c0-1.4 1.2-2.5 2.6-2.5h11.2c1.2 0 2.2.9 2.2 2.1V24c0 .8-.4 1.5-1.1 1.9l-8.3 4.3c-1.1.6-2.6-.2-2.6-1.5Z" fill="#7b5330"/>
  <path d="M10 25V6.8c0-.9.7-1.6 1.6-1.6h9.1c.7 0 1.3.6 1.3 1.3v16.2c0 .5-.3 1-.8 1.2l-6.8 3.6c-1 .5-2.4-.2-2.4-1.5Z" fill="#b17b47"/>
  <rect x="12" y="8" width="3.5" height="6.2" rx="1.3" fill="#d39a5d"/>
  <rect x="16.8" y="8" width="3.5" height="6.2" rx="1.3" fill="#d39a5d"/>
  <circle cx="18.8" cy="16" r="1.5" fill="#f0da9d"/>
  <path d="M7 25.5h9.5" stroke="#dfeada" stroke-width="2.2" stroke-linecap="round" opacity=".8"/>
</svg>
