<svg xmlns="http://www.w3.org/2000/svg" viewBox="0 0 32 32">
  <rect width="32" height="32" fill="#495752"/>
  <g fill="#64736c" stroke="#31403a" stroke-width=".9">
    <rect x="1" y="1" width="10" height="10"/>
    <rect x="11" y="1" width="10" height="10"/>
    <rect x="21" y="1" width="10" height="10"/>
    <rect x="1" y="11" width="10" height="10"/>
    <rect x="11" y="11" width="10" height="10"/>
    <rect x="21" y="11" width="10" height="10"/>
    <rect x="1" y="21" width="10" height="10"/>
    <rect x="11" y="21" width="10" height="10"/>
    <rect x="21" y="21" width="10" height="10"/>
  </g>
  <path d="M16 6l1 2 2 1-2 1-1 2-1-2-2-1 2-1zM8 22l1 1 1 1-1 1-1 1-1-1-1-1 1-1zM24 22l1 1 1 1-1 1-1 1-1-1-1-1 1-1z" fill="#aeb2bb" opacity=".18"/>
</svg>
