<svg xmlns="http://www.w3.org/2000/svg" viewBox="0 0 32 32">
  <defs>
    <linearGradient id="wallBase" x1="0" y1="0" x2="0" y2="1">
      <stop offset="0%" stop-color="#62896f"/>
      <stop offset="100%" stop-color="#456451"/>
    </linearGradient>
    <linearGradient id="brickFill" x1="0" y1="0" x2="1" y2="1">
      <stop offset="0%" stop-color="#87ab92"/>
      <stop offset="100%" stop-color="#6a8e76"/>
    </linearGradient>
    <linearGradient id="mortarShade" x1="0" y1="0" x2="1" y2="1">
      <stop offset="0%" stop-color="#294135"/>
      <stop offset="100%" stop-color="#23372d"/>
    </linearGradient>
    <pattern id="brickRows" width="16" height="16" patternUnits="userSpaceOnUse">
      <rect width="16" height="16" fill="url(#wallBase)"/>

      <rect x="0.85" y="0.85" width="6.3" height="5.1" rx="0.7" fill="url(#brickFill)"/>
      <rect x="8.85" y="0.85" width="6.3" height="5.1" rx="0.7" fill="url(#brickFill)"/>
      <rect x="-7.15" y="8.85" width="6.3" height="5.1" rx="0.7" fill="url(#brickFill)"/>
      <rect x="0.85" y="8.85" width="6.3" height="5.1" rx="0.7" fill="url(#brickFill)"/>
      <rect x="8.85" y="8.85" width="6.3" height="5.1" rx="0.7" fill="url(#brickFill)"/>

      <path d="M0 0H16M0 8H16M0 16H16" stroke="url(#mortarShade)" stroke-width="1.5" opacity="0.95"/>
      <path d="M8 0V8M0 8V16M8 8V16" stroke="url(#mortarShade)" stroke-width="1.3" opacity="0.95"/>

      <path d="M1.8 2.1H5.6M9.8 2.1H13.6M1.8 10.1H5.6M9.8 10.1H13.6" stroke="#edf8ee" stroke-width="0.6" stroke-linecap="round" opacity="0.24"/>
      <path d="M2.2 5.2H6.2M10.2 5.2H14.2M2.2 13.2H6.2M10.2 13.2H14.2" stroke="#1c2b23" stroke-width="0.65" stroke-linecap="round" opacity="0.18"/>
    </pattern>
  </defs>

  <rect width="32" height="32" fill="url(#brickRows)"/>
</svg>
