<svg xmlns="http://www.w3.org/2000/svg" width="128" height="128" viewBox="0 0 128 128" fill="none">
    <rect x="16" y="30" width="96" height="70" rx="10" fill="#7d5b47"/>
    <rect x="16" y="30" width="96" height="70" rx="10" stroke="#222" stroke-opacity="0.35" stroke-width="5"/>
    <rect x="40" y="18" width="48" height="18" rx="6" fill="#2B2B34" opacity="0.4"/>
    <rect x="24" y="42" width="80" height="46" rx="8" fill="#111827" opacity="0.18"/>
    <rect x="48" y="52" width="32" height="26" rx="6" fill="#dcc4a7"/>
    <ellipse cx="56.3" cy="56.2" rx="2.75" ry="4.95" transform="rotate(-35 56.3 56.2)" fill="#7d5b47"/><ellipse cx="56.85" cy="61.7" rx="2.75" ry="4.95" transform="rotate(-35 56.85 61.7)" fill="#7d5b47"/><ellipse cx="57.4" cy="67.2" rx="2.75" ry="4.95" transform="rotate(-35 57.4 67.2)" fill="#7d5b47"/><ellipse cx="57.95" cy="72.7" rx="2.75" ry="4.95" transform="rotate(-35 57.95 72.7)" fill="#7d5b47"/><ellipse cx="71.7" cy="56.2" rx="2.75" ry="4.95" transform="rotate(35 71.7 56.2)" fill="#7d5b47"/><ellipse cx="71.15" cy="61.7" rx="2.75" ry="4.95" transform="rotate(35 71.15 61.7)" fill="#7d5b47"/><ellipse cx="70.6" cy="67.2" rx="2.75" ry="4.95" transform="rotate(35 70.6 67.2)" fill="#7d5b47"/><ellipse cx="70.05" cy="72.7" rx="2.75" ry="4.95" transform="rotate(35 70.05 72.7)" fill="#7d5b47"/>
    <rect x="58" y="96" width="12" height="8" rx="2" fill="#2B2B34" opacity="0.55"/>
    </svg>