<svg xmlns="http://www.w3.org/2000/svg" width="128" height="128" viewBox="0 0 128 128" fill="none">
    <path d="M28 30 H100 L92 102 H36 Z" fill="#7d5b47"/>
    <path d="M28 30 H100 L92 102 H36 Z" stroke="#25303B" stroke-opacity="0.25" stroke-width="4"/>
    <path d="M38 44 H90 L85 92 H43 Z" fill="#dcc4a7" opacity="0.95"/>
    <path d="M46 58 C54 50, 74 50, 82 58" stroke="#7d5b47" stroke-width="5" stroke-linecap="round"/>
    <ellipse cx="58.4" cy="66.6" rx="2.0" ry="3.6" transform="rotate(-35 58.4 66.6)" fill="#7d5b47"/><ellipse cx="58.8" cy="70.6" rx="2.0" ry="3.6" transform="rotate(-35 58.8 70.6)" fill="#7d5b47"/><ellipse cx="59.2" cy="74.6" rx="2.0" ry="3.6" transform="rotate(-35 59.2 74.6)" fill="#7d5b47"/><ellipse cx="59.6" cy="78.6" rx="2.0" ry="3.6" transform="rotate(-35 59.6 78.6)" fill="#7d5b47"/><ellipse cx="69.6" cy="66.6" rx="2.0" ry="3.6" transform="rotate(35 69.6 66.6)" fill="#7d5b47"/><ellipse cx="69.2" cy="70.6" rx="2.0" ry="3.6" transform="rotate(35 69.2 70.6)" fill="#7d5b47"/><ellipse cx="68.8" cy="74.6" rx="2.0" ry="3.6" transform="rotate(35 68.8 74.6)" fill="#7d5b47"/><ellipse cx="68.4" cy="78.6" rx="2.0" ry="3.6" transform="rotate(35 68.4 78.6)" fill="#7d5b47"/>
    <rect x="38" y="24" width="52" height="10" rx="5" fill="#F3F4F6" opacity="0.85"/>
    </svg>