<svg xmlns="http://www.w3.org/2000/svg" width="128" height="128" viewBox="0 0 128 128" fill="none">
    <rect x="18" y="34" width="92" height="64" rx="14" fill="#7d5b47"/>
    <rect x="18" y="34" width="92" height="64" rx="14" stroke="#1C2430" stroke-opacity="0.25" stroke-width="4"/>
    <rect x="48" y="20" width="32" height="18" rx="8" fill="#7d5b47"/>
    <rect x="36" y="48" width="56" height="36" rx="10" fill="#dcc4a7" opacity="0.95"/>
    <ellipse cx="57.0" cy="58.0" rx="2.5" ry="4.5" transform="rotate(-35 57.0 58.0)" fill="#7d5b47"/><ellipse cx="57.5" cy="63.0" rx="2.5" ry="4.5" transform="rotate(-35 57.5 63.0)" fill="#7d5b47"/><ellipse cx="58.0" cy="68.0" rx="2.5" ry="4.5" transform="rotate(-35 58.0 68.0)" fill="#7d5b47"/><ellipse cx="58.5" cy="73.0" rx="2.5" ry="4.5" transform="rotate(-35 58.5 73.0)" fill="#7d5b47"/><ellipse cx="71.0" cy="58.0" rx="2.5" ry="4.5" transform="rotate(35 71.0 58.0)" fill="#7d5b47"/><ellipse cx="70.5" cy="63.0" rx="2.5" ry="4.5" transform="rotate(35 70.5 63.0)" fill="#7d5b47"/><ellipse cx="70.0" cy="68.0" rx="2.5" ry="4.5" transform="rotate(35 70.0 68.0)" fill="#7d5b47"/><ellipse cx="69.5" cy="73.0" rx="2.5" ry="4.5" transform="rotate(35 69.5 73.0)" fill="#7d5b47"/>
    <rect x="18" y="54" width="92" height="6" fill="#FFFFFF" opacity="0.12"/>
    </svg>