<svg xmlns="http://www.w3.org/2000/svg" width="128" height="128" viewBox="0 0 128 128" fill="none">
    <rect x="38" y="24" width="34" height="80" rx="12" fill="#7d5b47"/>
    <rect x="38" y="24" width="34" height="80" rx="12" stroke="#1F2937" stroke-opacity="0.25" stroke-width="4"/>
    <path d="M66 24 H88 C96 24 102 30 102 38 V54 H78 C71 54 66 49 66 42 Z" fill="#dcc4a7"/>
    <rect x="46" y="42" width="18" height="36" rx="6" fill="#dcc4a7" opacity="0.95"/>
    <ellipse cx="50.8" cy="55.2" rx="1.5" ry="2.6999999999999997" transform="rotate(-35 50.8 55.2)" fill="#7d5b47"/><ellipse cx="51.1" cy="58.2" rx="1.5" ry="2.6999999999999997" transform="rotate(-35 51.1 58.2)" fill="#7d5b47"/><ellipse cx="51.4" cy="61.2" rx="1.5" ry="2.6999999999999997" transform="rotate(-35 51.4 61.2)" fill="#7d5b47"/><ellipse cx="51.7" cy="64.2" rx="1.5" ry="2.6999999999999997" transform="rotate(-35 51.7 64.2)" fill="#7d5b47"/><ellipse cx="59.2" cy="55.2" rx="1.5" ry="2.6999999999999997" transform="rotate(35 59.2 55.2)" fill="#7d5b47"/><ellipse cx="58.9" cy="58.2" rx="1.5" ry="2.6999999999999997" transform="rotate(35 58.9 58.2)" fill="#7d5b47"/><ellipse cx="58.6" cy="61.2" rx="1.5" ry="2.6999999999999997" transform="rotate(35 58.6 61.2)" fill="#7d5b47"/><ellipse cx="58.3" cy="64.2" rx="1.5" ry="2.6999999999999997" transform="rotate(35 58.3 64.2)" fill="#7d5b47"/>
    <rect x="48" y="84" width="14" height="10" rx="4" fill="#FFFFFF" opacity="0.35"/>
    </svg>