<svg xmlns="http://www.w3.org/2000/svg" width="64" height="64" viewBox="0 0 64 64" shape-rendering="geometricPrecision">
  <rect width="64" height="64" fill="none"/>
  <defs>
    <linearGradient id="woodB2" x1="0" x2="0" y1="0" y2="1">
      <stop offset="0%" stop-color="#9f6a3d"/>
      <stop offset="45%" stop-color="#7b4d2b"/>
      <stop offset="100%" stop-color="#4e2e19"/>
    </linearGradient>
    <linearGradient id="metalB2" x1="0" x2="0" y1="0" y2="1">
      <stop offset="0%" stop-color="#999ba1"/>
      <stop offset="100%" stop-color="#50535b"/>
    </linearGradient>
  </defs>
  <ellipse cx="32" cy="13.5" rx="16.5" ry="6.5" fill="#b77c49" stroke="#472916" stroke-width="1.7"/>
  <path d="M15.5 13.5 C17 27, 20 47, 32 52 C44 47, 47 27, 48.5 13.5 C43 17.5, 21 17.5, 15.5 13.5 Z" fill="url(#woodB2)" stroke="#472916" stroke-width="1.7"/>
  <ellipse cx="32" cy="52" rx="15" ry="5.5" fill="#4b2b17" stroke="#341d10" stroke-width="1.5"/>
  <path d="M18 19 C24 22, 40 22, 46 19" fill="none" stroke="#5a341d" stroke-width="1.1"/>
  <path d="M16 30 C23 34, 41 34, 48 30" fill="none" stroke="#5a341d" stroke-width="1.1"/>
  <path d="M18 41 C24 44, 40 44, 46 41" fill="none" stroke="#5a341d" stroke-width="1.1"/>
  <path d="M17 20 C22 23, 42 23, 47 20 L46 25.5 C41 28.5, 23 28.5, 18 25.5 Z" fill="url(#metalB2)" stroke="#2b2d31" stroke-width="1.1"/>
  <path d="M15 31 C21 35, 43 35, 49 31 L48 37 C42 41, 22 41, 16 37 Z" fill="url(#metalB2)" stroke="#2b2d31" stroke-width="1.1"/>
  <path d="M17 42 C22 45, 42 45, 47 42 L46 47 C41 50, 23 50, 18 47 Z" fill="url(#metalB2)" stroke="#2b2d31" stroke-width="1.1"/>
  <path d="M22 16 L22 48 M32 15 L32 51 M42 16 L42 48" stroke="#5c3720" stroke-width="1.4"/>
  <ellipse cx="27" cy="12" rx="6" ry="2.3" fill="#dca06a" opacity="0.35"/>
</svg>