<svg xmlns="http://www.w3.org/2000/svg" width="64" height="64" viewBox="0 0 64 64" shape-rendering="geometricPrecision">
  <rect width="64" height="64" fill="none"/>
  <defs>
    <linearGradient id="woodD2" x1="0" x2="0" y1="0" y2="1">
      <stop offset="0%" stop-color="#9b663b"/>
      <stop offset="52%" stop-color="#724623"/>
      <stop offset="100%" stop-color="#482816"/>
    </linearGradient>
    <linearGradient id="metalD2" x1="0" x2="0" y1="0" y2="1">
      <stop offset="0%" stop-color="#878b92"/>
      <stop offset="100%" stop-color="#474b51"/>
    </linearGradient>
  </defs>
  <ellipse cx="32" cy="14.5" rx="15" ry="5.8" fill="#b97f4d" stroke="#462816" stroke-width="1.6"/>
  <path d="M17 14.5 C18.5 25, 20.5 45, 31.5 49 C43.5 45.5, 46 27, 47 14.5 C42 18, 22.5 18.5, 17 14.5 Z" fill="url(#woodD2)" stroke="#462816" stroke-width="1.6"/>
  <ellipse cx="31.5" cy="49" rx="14" ry="5.2" fill="#472816" stroke="#31190d" stroke-width="1.4"/>
  <path d="M23 17 L22 45 M30 16 L30 48 M37 17 L38 45 M43 19 L44 42" stroke="#56311b" stroke-width="1.15"/>
  <path d="M18 22 C22 24.5, 41.5 24, 45.5 22 L44.5 26.5 C40.5 29, 23 29.5, 19 27 Z" fill="url(#metalD2)" stroke="#2b2d31" stroke-width="1"/>
  <path d="M16.5 33 C21.5 36.5, 42.5 36, 47.5 33 L46.5 38.5 C41.5 42, 22 42.5, 17.5 39 Z" fill="url(#metalD2)" stroke="#2b2d31" stroke-width="1"/>
  <path d="M18.5 43 C22.5 45.5, 41.5 45, 45.5 43 L44.5 47 C40.5 49.5, 23.5 50, 19.5 47.5 Z" fill="url(#metalD2)" stroke="#2b2d31" stroke-width="1"/>
  <path d="M21 19 C26 21.5, 38 21.5, 43 19" fill="none" stroke="#5a341c" stroke-width="1"/>
  <path d="M19 30.5 C25 34.2, 38.5 34.2, 45 30.5" fill="none" stroke="#5a341c" stroke-width="1"/>
  <path d="M20.5 40.5 C25.5 43.2, 38 43, 43 40.5" fill="none" stroke="#5a341c" stroke-width="1"/>
  <ellipse cx="27" cy="12.2" rx="5.2" ry="1.9" fill="#dda46c" opacity="0.28"/>
</svg>