<svg xmlns="http://www.w3.org/2000/svg" viewBox="0 0 32 32">
  <rect width="32" height="32" fill="#8d6d43"/>
  <rect width="32" height="32" fill="#aa8654" opacity=".78"/>
  <path d="M3 7c3-3 7-3 11-1 4 2 7 2 12 0" stroke="#654b2d" stroke-width=".9" opacity=".22"/>
  <path d="M4 18c4-2 8-2 12 0 4 2 7 2 12 0" stroke="#6c5232" stroke-width=".95" opacity=".18"/>
  <path d="M7 27c4-2 9-2 14 0" stroke="#6a502f" stroke-width=".85" opacity=".16"/>
  <path d="M5 8l2-2M15 14l3-1M24 22l2 3M9 26l3-2" stroke="#e0c892" stroke-width=".75" opacity=".24"/>
  <path d="M3 4h8M20 5h6M6 21h5M22 26h4" stroke="#f0ddb3" stroke-width=".55" opacity=".12"/>
</svg>
