<svg xmlns="http://www.w3.org/2000/svg" viewBox="0 0 32 32">
  <rect width="32" height="32" fill="#765437"/>
  <g fill="#946f4c">
    <rect x="0" y="0" width="6" height="32"/>
    <rect x="6" y="0" width="7" height="32"/>
    <rect x="13" y="0" width="6" height="32"/>
    <rect x="19" y="0" width="7" height="32"/>
    <rect x="26" y="0" width="6" height="32"/>
  </g>
  <path d="M6 0v32M13 0v32M19 0v32M26 0v32" stroke="#4d3725" stroke-width="1"/>
  <path d="M2 9c1 1 2 1 3 0M9 20c1 1 2 1 3 0M21 7c1 1 2 1 3 0M27 25c1 1 2 1 3 0" stroke="#b88e65" stroke-width=".8" opacity=".25"/>
</svg>
