<svg xmlns="http://www.w3.org/2000/svg" width="64" height="64" viewBox="0 0 64 64">
  <defs>
    <linearGradient id="key-metal" x1="10" y1="24" x2="58" y2="40" gradientUnits="userSpaceOnUse">
      <stop offset="0" stop-color="#d6ffd8"/>
      <stop offset="0.5" stop-color="#70d983"/>
      <stop offset="1" stop-color="#20733c"/>
    </linearGradient>
    <filter id="key-shadow" x="-20%" y="-20%" width="140%" height="150%">
      <feDropShadow dx="0" dy="2.4" stdDeviation="1.8" flood-color="#041208" flood-opacity="0.5"/>
    </filter>
  </defs>
  <ellipse cx="33" cy="45" rx="24" ry="5.2" fill="#041208" opacity="0.25"/>
  <g transform="rotate(-15 32 32)" filter="url(#key-shadow)">
    <circle cx="19" cy="31" r="9.5" fill="none" stroke="#14582e" stroke-width="7.8"/>
    <circle cx="19" cy="31" r="9.5" fill="none" stroke="url(#key-metal)" stroke-width="5.8"/>
    <circle cx="19" cy="31" r="3.2" fill="#06150b" opacity="0.42"/>
    <path d="M29 27.8h24.5c2.3 0 4.1 1.8 4.1 4.1v2.4H52v7h-6.4v-7h-4.2v4.8h-6.1v-4.8H29z" fill="#14582e"/>
    <path d="M29 26.1h24.5c2.3 0 4.1 1.8 4.1 4.1v2.4H52v7h-6.4v-7h-4.2v4.8h-6.1v-4.8H29z" fill="url(#key-metal)"/>
    <path d="M31.5 28.3h20.4" fill="none" stroke="#e9ffe7" stroke-width="1.7" stroke-linecap="round" opacity="0.72"/>
  </g>
</svg>
