<svg xmlns="http://www.w3.org/2000/svg" viewBox="0 0 64 64">

<defs>
  <linearGradient id="frame" x1="0" y1="0" x2="0" y2="1">
    <stop offset="0" stop-color="#816b4c"/>
    <stop offset="1" stop-color="#473727"/>
  </linearGradient>
  <linearGradient id="glass" x1="0" y1="0" x2="1" y2="1">
    <stop offset="0" stop-color="#c8efff" stop-opacity="0.26"/>
    <stop offset="1" stop-color="#f3fbff" stop-opacity="0.06"/>
  </linearGradient>
</defs>
  <rect x="12" y="49" width="40" height="9" rx="2.4" fill="#554230"/>
  <rect x="14" y="51" width="36" height="5" rx="1.3" fill="#786149"/>
  <rect x="11" y="9" width="42" height="42" rx="2.4" fill="url(#frame)"/>
  <rect x="14" y="12" width="36" height="36" rx="1.2" fill="#0f141b"/>

  <rect x="22" y="31" width="20" height="9" rx="1.5" fill="#7c3f4d" stroke="#4d2430" stroke-width="1"/>
  <path d="M22 31 Q32 23 42 31" fill="#995061" stroke="#5b2d3a" stroke-width="1"/>
  <circle cx="32" cy="29" r="4" fill="none" stroke="#d8d0c0" stroke-width="1.5"/>
  <path d="M32 22 L33.8 25.2 L37.5 25.8 L34.8 28.2 L35.4 31.7 L32 30 L28.6 31.7 L29.2 28.2 L26.5 25.8 L30.2 25.2 Z"
        fill="#d8f6ff" stroke="#9cc7d5" stroke-width="0.8"/>

  <rect x="21" y="43" width="22" height="4" rx="1" fill="#69553d"/>
  <rect x="14" y="12" width="36" height="36" rx="1.2" fill="url(#glass)" stroke="#d8f3ff" stroke-opacity="0.16" stroke-width="0.8"/>
  <path d="M17 14 L25 14 L17.5 35.5 Z" fill="#ffffff" fill-opacity="0.13"/>
  <path d="M27.5 14 L31 14 L19.5 46 L16 46 Z" fill="#ffffff" fill-opacity="0.055"/>
</svg>
