<svg xmlns="http://www.w3.org/2000/svg" viewBox="0 0 64 64">

  <defs>
    <linearGradient id="bg" x1="0" y1="0" x2="0" y2="1">
      <stop offset="0" stop-color="#2b2f3a"/>
      <stop offset="1" stop-color="#171a20"/>
    </linearGradient>
    <linearGradient id="frame" x1="0" y1="0" x2="0" y2="1">
      <stop offset="0" stop-color="#816b4c"/>
      <stop offset="1" stop-color="#473727"/>
    </linearGradient>
    <linearGradient id="glass" x1="0" y1="0" x2="1" y2="1">
      <stop offset="0" stop-color="#c8efff" stop-opacity="0.26"/>
      <stop offset="1" stop-color="#f3fbff" stop-opacity="0.06"/>
    </linearGradient>
  </defs>

  <rect x="12" y="49" width="40" height="9" rx="2.4" fill="#554230"/>
  <rect x="14" y="51" width="36" height="5" rx="1.3" fill="#786149"/>
  <rect x="11" y="9" width="42" height="42" rx="2.4" fill="url(#frame)"/>
  <rect x="14" y="12" width="36" height="36" rx="1.2" fill="#0f141b"/>
  <rect x="21" y="43" width="22" height="4" rx="1" fill="#69553d"/>

  <path d="M32 20 C26 20,22 25,22 30 C22 37,26 41,32 43 C38 41,42 37,42 30 C42 25,38 20,32 20Z" fill="#d9d2bf" stroke="#2f2a22" stroke-width="1.2"/>
  <path d="M26 29 L30 28 L29 31 L26 31 Z" fill="#2b1a14"/>
  <path d="M38 29 L34 28 L35 31 L38 31 Z" fill="#2b1a14"/>
  <circle cx="30" cy="35" r="1.1" fill="#7a2a2a"/><circle cx="34" cy="35" r="1.1" fill="#7a2a2a"/>
  <circle cx="27" cy="24" r="1" fill="#7d6d59"/><circle cx="37" cy="24" r="1" fill="#7d6d59"/>

  <rect x="14" y="12" width="36" height="36" rx="1.2" fill="url(#glass)" stroke="#d8f3ff" stroke-opacity="0.16" stroke-width="0.8"/>
  <path d="M17 14 L25 14 L17.5 35.5 Z" fill="#ffffff" fill-opacity="0.13"/>
  <path d="M27.5 14 L31 14 L19.5 46 L16 46 Z" fill="#ffffff" fill-opacity="0.055"/></svg>

