<svg xmlns="http://www.w3.org/2000/svg" viewBox="0 0 64 64">

  <defs>
    <linearGradient id="bg" x1="0" y1="0" x2="0" y2="1">
      <stop offset="0" stop-color="#2b2f3a"/>
      <stop offset="1" stop-color="#171a20"/>
    </linearGradient>
    <linearGradient id="frame" x1="0" y1="0" x2="0" y2="1">
      <stop offset="0" stop-color="#7a6648"/>
      <stop offset="1" stop-color="#4a3b2a"/>
    </linearGradient>
    <linearGradient id="glass" x1="0" y1="0" x2="1" y2="1">
      <stop offset="0" stop-color="#bfe9ff" stop-opacity="0.28"/>
      <stop offset="1" stop-color="#e8f8ff" stop-opacity="0.08"/>
    </linearGradient>
  </defs>

  <rect width="64" height="64" fill="url(#bg)"/>
  <rect x="16" y="50" width="32" height="8" rx="2" fill="#584736"/>
  <rect x="18" y="52" width="28" height="4" rx="1" fill="#76614a"/>
  <rect x="14" y="12" width="36" height="40" rx="2" fill="url(#frame)"/>
  <rect x="18" y="16" width="28" height="32" rx="1" fill="#10151c"/>
  <rect x="24" y="42" width="16" height="4" rx="1" fill="#6b5a45"/>

  <path d="M25 24 L32 28 L39 24 L41 39 L35 39 L33 31 L31 31 L29 39 L23 39 Z" fill="#2b2d31"/>
  <rect x="25" y="20" width="5" height="3" rx="1" fill="#0f1012"/><rect x="34" y="20" width="5" height="3" rx="1" fill="#0f1012"/>
  <path d="M30 21.5 L34 21.5" stroke="#535862" stroke-width="1"/>

  <rect x="18" y="16" width="28" height="32" rx="1" fill="url(#glass)" stroke="#d8f3ff" stroke-opacity="0.18" stroke-width="0.8"/>
  <path d="M21 18 L27 18 L21 34 Z" fill="#ffffff" fill-opacity="0.13"/>
  <path d="M29 18 L32 18 L22 44 L19 44 Z" fill="#ffffff" fill-opacity="0.06"/>
</svg>
