<svg xmlns="http://www.w3.org/2000/svg" viewBox="0 0 64 64">

<defs>
  <linearGradient id="frame" x1="0" y1="0" x2="0" y2="1">
    <stop offset="0" stop-color="#7a6648"/>
    <stop offset="1" stop-color="#4a3b2a"/>
  </linearGradient>
  <linearGradient id="glass" x1="0" y1="0" x2="1" y2="1">
    <stop offset="0" stop-color="#bfe9ff" stop-opacity="0.28"/>
    <stop offset="1" stop-color="#e8f8ff" stop-opacity="0.08"/>
  </linearGradient>
</defs>
  <rect x="16" y="50" width="32" height="8" rx="2" fill="#584736"/>
  <rect x="18" y="52" width="28" height="4" rx="1" fill="#76614a"/>
  <rect x="14" y="12" width="36" height="40" rx="2" fill="url(#frame)"/>
  <rect x="18" y="16" width="28" height="32" rx="1" fill="#10151c"/>

  <path d="M22 28 C26 22,38 22,42 28 L38 34 C35 32,29 32,26 34 Z" fill="#121212" stroke="#3a3a3a" stroke-width="1"/>
  <path d="M26 28 C28 27,30 27,32 28" stroke="#6e6e6e" stroke-width="0.8"/>
  <path d="M30 30 h-3 m10 0 h-3" stroke="#d8d8d8" stroke-width="1.2" stroke-linecap="round"/>
  <path d="M24 39 L40 22" stroke="#d5b24b" stroke-width="1.8"/>

  <rect x="24" y="42" width="16" height="4" rx="1" fill="#6b5a45"/>
  <rect x="18" y="16" width="28" height="32" rx="1" fill="url(#glass)" stroke="#d8f3ff" stroke-opacity="0.18" stroke-width="0.8"/>
  <path d="M21 18 L27 18 L21 34 Z" fill="#ffffff" fill-opacity="0.13"/>
  <path d="M29 18 L32 18 L22 44 L19 44 Z" fill="#ffffff" fill-opacity="0.06"/>
</svg>
