<svg xmlns="http://www.w3.org/2000/svg" width="128" height="128" viewBox="0 0 128 128">
<rect x="83" y="49" width="17" height="9" fill="#655b53" fill-opacity="0.82" rx="1" ry="1" transform="rotate(-26 91.5 53.5)"/>
<rect x="46" y="80" width="18" height="7" fill="#655b53" fill-opacity="0.82" rx="1" ry="1" transform="rotate(-22 55.0 83.5)"/>
<rect x="75" y="52" width="16" height="11" fill="#8c8175" fill-opacity="0.82" rx="1" ry="1" transform="rotate(13 83.0 57.5)"/>
<rect x="60" y="57" width="15" height="6" fill="#7a6d61" fill-opacity="0.82" rx="1" ry="1" transform="rotate(14 67.5 60.0)"/>
<rect x="84" y="103" width="15" height="6" fill="#9a8f82" fill-opacity="0.82" rx="1" ry="1" transform="rotate(32 91.5 106.0)"/>
<rect x="54" y="69" width="17" height="5" fill="#655b53" fill-opacity="0.82" rx="1" ry="1" transform="rotate(34 62.5 71.5)"/>
<circle cx="68" cy="73" r="2" fill="#b2a79b" fill-opacity="0.5"/>
<circle cx="105" cy="65" r="3" fill="#b2a79b" fill-opacity="0.5"/>
<circle cx="27" cy="76" r="2" fill="#b2a79b" fill-opacity="0.5"/>
</svg>