<svg xmlns="http://www.w3.org/2000/svg" width="128" height="128" viewBox="0 0 128 128">
<rect x="24" y="56" width="9" height="11" fill="#7a6d61" fill-opacity="0.82" rx="1" ry="1" transform="rotate(-1 28.5 61.5)"/>
<rect x="22" y="70" width="16" height="10" fill="#7a6d61" fill-opacity="0.82" rx="1" ry="1" transform="rotate(8 30.0 75.0)"/>
<rect x="38" y="39" width="13" height="10" fill="#8c8175" fill-opacity="0.82" rx="1" ry="1" transform="rotate(-4 44.5 44.0)"/>
<rect x="18" y="77" width="9" height="11" fill="#7a6d61" fill-opacity="0.82" rx="1" ry="1" transform="rotate(-27 22.5 82.5)"/>
<rect x="58" y="79" width="9" height="5" fill="#8c8175" fill-opacity="0.82" rx="1" ry="1" transform="rotate(-24 62.5 81.5)"/>
<rect x="34" y="24" width="12" height="11" fill="#655b53" fill-opacity="0.82" rx="1" ry="1" transform="rotate(26 40.0 29.5)"/>
<rect x="78" y="26" width="12" height="10" fill="#9a8f82" fill-opacity="0.82" rx="1" ry="1" transform="rotate(31 84.0 31.0)"/>
<rect x="44" y="99" width="18" height="10" fill="#9a8f82" fill-opacity="0.82" rx="1" ry="1" transform="rotate(-34 53.0 104.0)"/>
<rect x="100" y="87" width="14" height="12" fill="#9a8f82" fill-opacity="0.82" rx="1" ry="1" transform="rotate(31 107.0 93.0)"/>
<rect x="65" y="87" width="8" height="7" fill="#9a8f82" fill-opacity="0.82" rx="1" ry="1" transform="rotate(-25 69.0 90.5)"/>
<rect x="102" y="55" width="10" height="10" fill="#9a8f82" fill-opacity="0.82" rx="1" ry="1" transform="rotate(8 107.0 60.0)"/>
<circle cx="27" cy="110" r="3" fill="#b2a79b" fill-opacity="0.5"/>
<circle cx="67" cy="91" r="3" fill="#b2a79b" fill-opacity="0.5"/>
<circle cx="20" cy="42" r="4" fill="#b2a79b" fill-opacity="0.5"/>
<circle cx="29" cy="98" r="3" fill="#b2a79b" fill-opacity="0.5"/>
<circle cx="19" cy="63" r="2" fill="#b2a79b" fill-opacity="0.5"/>
</svg>