<svg xmlns="http://www.w3.org/2000/svg" width="128" height="128" viewBox="0 0 128 128">

<g opacity="0.95">
  <polygon points="18,48 31,32 45,38 40,55 23,57" fill="#8a8d92"/>
  <polygon points="42,28 57,21 71,30 63,44 49,43" fill="#9ea2a8"/>
  <polygon points="70,49 85,39 90,54 80,62 66,56" fill="#767b84"/>
  <polygon points="90,70 108,60 114,78 100,90 85,84" fill="#8a8d92"/>
  <polygon points="52,72 66,63 74,74 68,87 51,84" fill="#9ea2a8"/>
  <rect x="18" y="83" width="27" height="5" rx="2" fill="#6f5a44" opacity="0.85"/>
  <rect x="77" y="31" width="22" height="5" rx="2" fill="#6f5a44" opacity="0.85" transform="rotate(22 88 33)"/>
</g>
</svg>