<svg xmlns="http://www.w3.org/2000/svg" width="128" height="128" viewBox="0 0 128 128">
<circle cx="14" cy="102" r="3" fill="#d5ccbf" fill-opacity="0.20594753754589057"/>
<circle cx="14" cy="81" r="3" fill="#b7ad9e" fill-opacity="0.12897219226896786"/>
<circle cx="110" cy="33" r="3" fill="#c8beb0" fill-opacity="0.15897740454681997"/>
<circle cx="99" cy="76" r="2" fill="#b7ad9e" fill-opacity="0.1511473915116608"/>
<circle cx="81" cy="37" r="3" fill="#d5ccbf" fill-opacity="0.1307504815522706"/>
<circle cx="112" cy="27" r="3" fill="#d5ccbf" fill-opacity="0.21892211007552353"/>
<circle cx="14" cy="85" r="4" fill="#b7ad9e" fill-opacity="0.188616193348087"/>
<circle cx="20" cy="42" r="1" fill="#d5ccbf" fill-opacity="0.09144964726748787"/>
<circle cx="68" cy="108" r="4" fill="#b7ad9e" fill-opacity="0.17712860550022266"/>
<circle cx="97" cy="89" r="1" fill="#b7ad9e" fill-opacity="0.1292013300421161"/>
<circle cx="102" cy="99" r="3" fill="#d5ccbf" fill-opacity="0.11353837390456165"/>
<circle cx="25" cy="52" r="4" fill="#b7ad9e" fill-opacity="0.16838337455180163"/>
<circle cx="28" cy="104" r="4" fill="#b7ad9e" fill-opacity="0.20341507341034995"/>
<circle cx="113" cy="63" r="2" fill="#c8beb0" fill-opacity="0.10951564439073021"/>
<circle cx="106" cy="77" r="3" fill="#c8beb0" fill-opacity="0.1077339697054777"/>
<circle cx="72" cy="60" r="1" fill="#c8beb0" fill-opacity="0.17813197247609902"/>
<circle cx="67" cy="96" r="2" fill="#b7ad9e" fill-opacity="0.2109176015651209"/>
<circle cx="113" cy="114" r="3" fill="#d5ccbf" fill-opacity="0.21392971101103458"/>
<circle cx="19" cy="113" r="1" fill="#c8beb0" fill-opacity="0.19602207116975848"/>
<circle cx="43" cy="47" r="3" fill="#d5ccbf" fill-opacity="0.10413976656767274"/>
<circle cx="56" cy="109" r="4" fill="#c8beb0" fill-opacity="0.09539704388627356"/>
<circle cx="44" cy="43" r="4" fill="#c8beb0" fill-opacity="0.18643416195238846"/>
</svg>