<svg xmlns="http://www.w3.org/2000/svg" width="128" height="128" viewBox="0 0 128 128">
<circle cx="80" cy="113" r="1" fill="#d5ccbf" fill-opacity="0.18977508579569013"/>
<circle cx="36" cy="87" r="4" fill="#c8beb0" fill-opacity="0.20951465098299926"/>
<circle cx="97" cy="85" r="1" fill="#d5ccbf" fill-opacity="0.21724829514293764"/>
<circle cx="57" cy="66" r="2" fill="#b7ad9e" fill-opacity="0.1521591129060862"/>
<circle cx="93" cy="108" r="4" fill="#d5ccbf" fill-opacity="0.10584496648629012"/>
<circle cx="107" cy="58" r="3" fill="#d5ccbf" fill-opacity="0.11140656266495827"/>
<circle cx="109" cy="83" r="3" fill="#b7ad9e" fill-opacity="0.15565765564055628"/>
<circle cx="47" cy="75" r="3" fill="#b7ad9e" fill-opacity="0.10307456904996516"/>
<circle cx="42" cy="60" r="1" fill="#d5ccbf" fill-opacity="0.16442554144050453"/>
<circle cx="77" cy="82" r="4" fill="#c8beb0" fill-opacity="0.09402911054924873"/>
<circle cx="50" cy="17" r="3" fill="#d5ccbf" fill-opacity="0.1675414119503426"/>
<circle cx="92" cy="73" r="4" fill="#b7ad9e" fill-opacity="0.13039633367969544"/>
<circle cx="87" cy="73" r="4" fill="#d5ccbf" fill-opacity="0.10803109077565486"/>
<circle cx="23" cy="74" r="1" fill="#b7ad9e" fill-opacity="0.1242070407439543"/>
<circle cx="15" cy="48" r="1" fill="#b7ad9e" fill-opacity="0.11718158190009642"/>
<circle cx="43" cy="91" r="1" fill="#d5ccbf" fill-opacity="0.08188876886349152"/>
<circle cx="89" cy="104" r="1" fill="#b7ad9e" fill-opacity="0.09636803090999524"/>
<circle cx="83" cy="81" r="2" fill="#b7ad9e" fill-opacity="0.1583315404404368"/>
<circle cx="31" cy="51" r="2" fill="#d5ccbf" fill-opacity="0.20494907180596933"/>
<circle cx="38" cy="111" r="2" fill="#b7ad9e" fill-opacity="0.18035564647743596"/>
<circle cx="106" cy="61" r="2" fill="#b7ad9e" fill-opacity="0.10540420365888584"/>
<circle cx="53" cy="110" r="2" fill="#d5ccbf" fill-opacity="0.16278534577754955"/>
<circle cx="24" cy="101" r="3" fill="#d5ccbf" fill-opacity="0.11716884978932895"/>
<circle cx="71" cy="84" r="2" fill="#c8beb0" fill-opacity="0.21126262335522072"/>
<circle cx="41" cy="65" r="4" fill="#b7ad9e" fill-opacity="0.08323116926202115"/>
<circle cx="17" cy="92" r="4" fill="#b7ad9e" fill-opacity="0.20890127044114104"/>
<circle cx="14" cy="46" r="3" fill="#c8beb0" fill-opacity="0.09755462138671477"/>
<circle cx="47" cy="54" r="4" fill="#c8beb0" fill-opacity="0.12310447771085456"/>
<circle cx="64" cy="68" r="4" fill="#d5ccbf" fill-opacity="0.21540080505300596"/>
<circle cx="83" cy="99" r="2" fill="#b7ad9e" fill-opacity="0.08146638157958946"/>
<path d="M18 82 C 44 72, 66 80, 110 66" fill="none" fill-opacity="0.1" stroke="#c8beb0" stroke-width="16" stroke-linecap="round" stroke-linejoin="round"/>
</svg>