<svg xmlns="http://www.w3.org/2000/svg" width="128" height="128" viewBox="0 0 128 128">
<circle cx="112" cy="26" r="1" fill="#b7ad9e" fill-opacity="0.08254777248531697"/>
<circle cx="107" cy="20" r="2" fill="#c8beb0" fill-opacity="0.15209203114010678"/>
<circle cx="104" cy="62" r="4" fill="#b7ad9e" fill-opacity="0.2177115370849455"/>
<circle cx="36" cy="43" r="2" fill="#d5ccbf" fill-opacity="0.1975379365494444"/>
<circle cx="102" cy="70" r="3" fill="#c8beb0" fill-opacity="0.15581098241704205"/>
<circle cx="68" cy="64" r="2" fill="#b7ad9e" fill-opacity="0.08740649952868565"/>
<circle cx="70" cy="98" r="2" fill="#c8beb0" fill-opacity="0.20147856178872353"/>
<circle cx="98" cy="65" r="1" fill="#d5ccbf" fill-opacity="0.1555731425728478"/>
<circle cx="100" cy="74" r="2" fill="#b7ad9e" fill-opacity="0.11399279502816358"/>
<circle cx="32" cy="102" r="4" fill="#c8beb0" fill-opacity="0.12300299055700581"/>
<circle cx="104" cy="32" r="2" fill="#c8beb0" fill-opacity="0.13265591095689983"/>
<circle cx="74" cy="58" r="4" fill="#d5ccbf" fill-opacity="0.17515004624814"/>
<circle cx="91" cy="58" r="4" fill="#d5ccbf" fill-opacity="0.17050147818431854"/>
<circle cx="112" cy="64" r="3" fill="#d5ccbf" fill-opacity="0.12825851214942557"/>
<circle cx="48" cy="68" r="2" fill="#b7ad9e" fill-opacity="0.19870142297901888"/>
<circle cx="71" cy="61" r="2" fill="#d5ccbf" fill-opacity="0.19331019643163844"/>
<circle cx="64" cy="27" r="3" fill="#c8beb0" fill-opacity="0.1472109186008015"/>
<circle cx="32" cy="50" r="2" fill="#c8beb0" fill-opacity="0.21371901987546654"/>
<circle cx="48" cy="98" r="3" fill="#d5ccbf" fill-opacity="0.09410151485127786"/>
<circle cx="14" cy="63" r="2" fill="#c8beb0" fill-opacity="0.13011863069610885"/>
<circle cx="56" cy="40" r="3" fill="#b7ad9e" fill-opacity="0.11804843980513519"/>
<circle cx="65" cy="109" r="4" fill="#d5ccbf" fill-opacity="0.15933861695992801"/>
<circle cx="16" cy="93" r="4" fill="#c8beb0" fill-opacity="0.17530871046140634"/>
<circle cx="33" cy="52" r="2" fill="#b7ad9e" fill-opacity="0.12073855713964199"/>
<circle cx="52" cy="74" r="1" fill="#d5ccbf" fill-opacity="0.16892539319404726"/>
<circle cx="99" cy="114" r="1" fill="#c8beb0" fill-opacity="0.19389567819859"/>
<circle cx="59" cy="30" r="1" fill="#b7ad9e" fill-opacity="0.17559921050737803"/>
<circle cx="23" cy="79" r="4" fill="#b7ad9e" fill-opacity="0.17560264891302735"/>
<circle cx="91" cy="34" r="2" fill="#c8beb0" fill-opacity="0.1339811548811335"/>
<circle cx="82" cy="72" r="4" fill="#c8beb0" fill-opacity="0.20987867740597543"/>
<circle cx="65" cy="22" r="2" fill="#c8beb0" fill-opacity="0.13229679858132137"/>
<circle cx="58" cy="79" r="2" fill="#c8beb0" fill-opacity="0.11552392280752039"/>
<circle cx="55" cy="20" r="1" fill="#c8beb0" fill-opacity="0.21636439664148044"/>
<circle cx="103" cy="24" r="2" fill="#d5ccbf" fill-opacity="0.13379532817532172"/>
<circle cx="45" cy="38" r="1" fill="#d5ccbf" fill-opacity="0.1576102605725638"/>
<circle cx="63" cy="113" r="4" fill="#d5ccbf" fill-opacity="0.1850847427063995"/>
</svg>