<svg xmlns="http://www.w3.org/2000/svg" width="128" height="128" viewBox="0 0 128 128">
<ellipse cx="26" cy="86" rx="6" ry="11" fill="#6d5f52" fill-opacity="0.28"/>
<circle cx="24" cy="74" r="2" fill="#6d5f52" fill-opacity="0.28"/>
<circle cx="27" cy="73" r="1.7" fill="#6d5f52" fill-opacity="0.28"/>
<ellipse cx="40" cy="70" rx="6" ry="11" fill="#6d5f52" fill-opacity="0.28"/>
<circle cx="38" cy="58" r="2" fill="#6d5f52" fill-opacity="0.28"/>
<circle cx="41" cy="57" r="1.7" fill="#6d5f52" fill-opacity="0.28"/>
<ellipse cx="54" cy="86" rx="6" ry="11" fill="#6d5f52" fill-opacity="0.28"/>
<circle cx="52" cy="74" r="2" fill="#6d5f52" fill-opacity="0.28"/>
<circle cx="55" cy="73" r="1.7" fill="#6d5f52" fill-opacity="0.28"/>
<ellipse cx="68" cy="70" rx="6" ry="11" fill="#6d5f52" fill-opacity="0.28"/>
<circle cx="66" cy="58" r="2" fill="#6d5f52" fill-opacity="0.28"/>
<circle cx="69" cy="57" r="1.7" fill="#6d5f52" fill-opacity="0.28"/>
<ellipse cx="82" cy="86" rx="6" ry="11" fill="#6d5f52" fill-opacity="0.28"/>
<circle cx="80" cy="74" r="2" fill="#6d5f52" fill-opacity="0.28"/>
<circle cx="83" cy="73" r="1.7" fill="#6d5f52" fill-opacity="0.28"/>
<ellipse cx="96" cy="70" rx="6" ry="11" fill="#6d5f52" fill-opacity="0.28"/>
<circle cx="94" cy="58" r="2" fill="#6d5f52" fill-opacity="0.28"/>
<circle cx="97" cy="57" r="1.7" fill="#6d5f52" fill-opacity="0.28"/>
</svg>