<svg xmlns="http://www.w3.org/2000/svg" width="128" height="128" viewBox="0 0 128 128">
<polygon points="75,76 86,79 83,83" fill="#b9dff0" fill-opacity="0.45" stroke="#eaf9ff" stroke-width="1"/>
<polygon points="86,41 75,50 88,49 81,43 80,53" fill="#b9dff0" fill-opacity="0.45" stroke="#eaf9ff" stroke-width="1"/>
<polygon points="107,66 103,71 111,64 108,71 109,56" fill="#b9dff0" fill-opacity="0.45" stroke="#eaf9ff" stroke-width="1"/>
<polygon points="25,64 21,65 21,71" fill="#b9dff0" fill-opacity="0.45" stroke="#eaf9ff" stroke-width="1"/>
<polygon points="49,103 45,98 43,90 51,95" fill="#b9dff0" fill-opacity="0.45" stroke="#eaf9ff" stroke-width="1"/>
<polygon points="36,73 50,59 39,59 37,69 41,62" fill="#b9dff0" fill-opacity="0.45" stroke="#eaf9ff" stroke-width="1"/>
<polygon points="52,102 39,92 46,97" fill="#b9dff0" fill-opacity="0.45" stroke="#eaf9ff" stroke-width="1"/>
<polygon points="84,59 76,64 87,74" fill="#b9dff0" fill-opacity="0.45" stroke="#eaf9ff" stroke-width="1"/>
<polygon points="99,87 98,77 109,89" fill="#b9dff0" fill-opacity="0.45" stroke="#eaf9ff" stroke-width="1"/>
<polygon points="40,24 40,18 48,11 33,24 49,12" fill="#b9dff0" fill-opacity="0.45" stroke="#eaf9ff" stroke-width="1"/>
<polygon points="32,52 26,50 30,54" fill="#b9dff0" fill-opacity="0.45" stroke="#eaf9ff" stroke-width="1"/>
<polygon points="75,95 78,102 71,102 79,97" fill="#b9dff0" fill-opacity="0.45" stroke="#eaf9ff" stroke-width="1"/>
<polygon points="50,33 52,37 55,37 50,26" fill="#b9dff0" fill-opacity="0.45" stroke="#eaf9ff" stroke-width="1"/>
<polygon points="89,83 90,79 105,85 96,85" fill="#b9dff0" fill-opacity="0.45" stroke="#eaf9ff" stroke-width="1"/>
</svg>