<svg xmlns="http://www.w3.org/2000/svg" width="128" height="128" viewBox="0 0 128 128">
<polygon points="103,72 104,60 109,66 95,61 106,65" fill="#b9dff0" fill-opacity="0.45" stroke="#eaf9ff" stroke-width="1"/>
<polygon points="64,62 64,62 57,60 65,54" fill="#b9dff0" fill-opacity="0.45" stroke="#eaf9ff" stroke-width="1"/>
<polygon points="51,84 53,86 44,83" fill="#b9dff0" fill-opacity="0.45" stroke="#eaf9ff" stroke-width="1"/>
<polygon points="25,50 23,39 35,51 29,43 21,45" fill="#b9dff0" fill-opacity="0.45" stroke="#eaf9ff" stroke-width="1"/>
<polygon points="63,43 52,37 56,29" fill="#b9dff0" fill-opacity="0.45" stroke="#eaf9ff" stroke-width="1"/>
<polygon points="39,51 45,47 48,48" fill="#b9dff0" fill-opacity="0.45" stroke="#eaf9ff" stroke-width="1"/>
<polygon points="33,110 32,94 39,108" fill="#b9dff0" fill-opacity="0.45" stroke="#eaf9ff" stroke-width="1"/>
<polygon points="63,112 69,108 63,112" fill="#b9dff0" fill-opacity="0.45" stroke="#eaf9ff" stroke-width="1"/>
<polygon points="91,54 92,44 87,55 97,54 89,53" fill="#b9dff0" fill-opacity="0.45" stroke="#eaf9ff" stroke-width="1"/>
<polygon points="23,45 27,58 23,50 31,55 31,53" fill="#b9dff0" fill-opacity="0.45" stroke="#eaf9ff" stroke-width="1"/>
<polygon points="51,102 44,109 40,98" fill="#b9dff0" fill-opacity="0.45" stroke="#eaf9ff" stroke-width="1"/>
<polygon points="58,74 45,71 52,72 51,70" fill="#b9dff0" fill-opacity="0.45" stroke="#eaf9ff" stroke-width="1"/>
<polygon points="34,82 35,79 30,80 37,82" fill="#b9dff0" fill-opacity="0.45" stroke="#eaf9ff" stroke-width="1"/>
<polygon points="54,95 48,95 53,97 45,94 58,90" fill="#b9dff0" fill-opacity="0.45" stroke="#eaf9ff" stroke-width="1"/>
<polygon points="69,44 66,49 67,39 66,41" fill="#b9dff0" fill-opacity="0.45" stroke="#eaf9ff" stroke-width="1"/>
<polygon points="34,107 44,100 46,98" fill="#b9dff0" fill-opacity="0.45" stroke="#eaf9ff" stroke-width="1"/>
</svg>