<svg xmlns="http://www.w3.org/2000/svg" width="128" height="128" viewBox="0 0 128 128">
<polygon points="83,65 74,57 82,63 82,61" fill="#b9dff0" fill-opacity="0.45" stroke="#eaf9ff" stroke-width="1"/>
<polygon points="23,63 12,67 14,58 23,68 15,67" fill="#b9dff0" fill-opacity="0.45" stroke="#eaf9ff" stroke-width="1"/>
<polygon points="21,93 20,93 26,98" fill="#b9dff0" fill-opacity="0.45" stroke="#eaf9ff" stroke-width="1"/>
<polygon points="30,34 25,24 26,22 30,34 33,27" fill="#b9dff0" fill-opacity="0.45" stroke="#eaf9ff" stroke-width="1"/>
<polygon points="62,99 74,99 66,101 69,94 73,100" fill="#b9dff0" fill-opacity="0.45" stroke="#eaf9ff" stroke-width="1"/>
<polygon points="54,60 50,67 54,64 44,63" fill="#b9dff0" fill-opacity="0.45" stroke="#eaf9ff" stroke-width="1"/>
<polygon points="35,16 38,20 39,25" fill="#b9dff0" fill-opacity="0.45" stroke="#eaf9ff" stroke-width="1"/>
<polygon points="40,100 33,105 46,104 32,95" fill="#b9dff0" fill-opacity="0.45" stroke="#eaf9ff" stroke-width="1"/>
</svg>