<svg xmlns="http://www.w3.org/2000/svg" width="128" height="128" viewBox="0 0 128 128">
<polygon points="103.2,64.0 102.4,82.4 87.9,91.9 64.0,93.5 38.1,90.9 21.6,82.7 12.9,64.0 19.8,50.7 41.6,32.7 64.0,32.6 84.8,37.8 102.8,50.2" fill="#5b8f43" fill-opacity="0.88"/>
<path d="M35 59 L33 40 M35 59 L37 42" fill="none" fill-opacity="0.5" stroke="#9ed36b" stroke-width="2" stroke-linecap="round" stroke-linejoin="round"/>
<path d="M74 54 L72 35 M74 54 L76 37" fill="none" fill-opacity="0.5" stroke="#9ed36b" stroke-width="2" stroke-linecap="round" stroke-linejoin="round"/>
<path d="M90 54 L88 39 M90 54 L92 41" fill="none" fill-opacity="0.5" stroke="#9ed36b" stroke-width="2" stroke-linecap="round" stroke-linejoin="round"/>
<path d="M60 55 L58 35 M60 55 L62 37" fill="none" fill-opacity="0.5" stroke="#9ed36b" stroke-width="2" stroke-linecap="round" stroke-linejoin="round"/>
<path d="M78 39 L76 19 M78 39 L80 21" fill="none" fill-opacity="0.5" stroke="#9ed36b" stroke-width="2" stroke-linecap="round" stroke-linejoin="round"/>
<path d="M101 87 L99 75 M101 87 L103 77" fill="none" fill-opacity="0.5" stroke="#9ed36b" stroke-width="2" stroke-linecap="round" stroke-linejoin="round"/>
<path d="M27 92 L25 76 M27 92 L29 78" fill="none" fill-opacity="0.5" stroke="#9ed36b" stroke-width="2" stroke-linecap="round" stroke-linejoin="round"/>
<path d="M67 89 L65 70 M67 89 L69 72" fill="none" fill-opacity="0.5" stroke="#9ed36b" stroke-width="2" stroke-linecap="round" stroke-linejoin="round"/>
<path d="M53 51 L51 36 M53 51 L55 38" fill="none" fill-opacity="0.5" stroke="#9ed36b" stroke-width="2" stroke-linecap="round" stroke-linejoin="round"/>
<path d="M47 87 L45 76 M47 87 L49 78" fill="none" fill-opacity="0.5" stroke="#9ed36b" stroke-width="2" stroke-linecap="round" stroke-linejoin="round"/>
<path d="M65 62 L63 42 M65 62 L67 44" fill="none" fill-opacity="0.5" stroke="#9ed36b" stroke-width="2" stroke-linecap="round" stroke-linejoin="round"/>
<path d="M78 94 L76 82 M78 94 L80 84" fill="none" fill-opacity="0.5" stroke="#9ed36b" stroke-width="2" stroke-linecap="round" stroke-linejoin="round"/>
<path d="M65 46 L63 30 M65 46 L67 32" fill="none" fill-opacity="0.5" stroke="#9ed36b" stroke-width="2" stroke-linecap="round" stroke-linejoin="round"/>
<path d="M26 50 L24 35 M26 50 L28 37" fill="none" fill-opacity="0.5" stroke="#9ed36b" stroke-width="2" stroke-linecap="round" stroke-linejoin="round"/>
<path d="M82 78 L80 63 M82 78 L84 65" fill="none" fill-opacity="0.5" stroke="#9ed36b" stroke-width="2" stroke-linecap="round" stroke-linejoin="round"/>
<path d="M101 33 L99 15 M101 33 L103 17" fill="none" fill-opacity="0.5" stroke="#9ed36b" stroke-width="2" stroke-linecap="round" stroke-linejoin="round"/>
<path d="M41 33 L39 19 M41 33 L43 21" fill="none" fill-opacity="0.5" stroke="#9ed36b" stroke-width="2" stroke-linecap="round" stroke-linejoin="round"/>
<path d="M78 38 L76 20 M78 38 L80 22" fill="none" fill-opacity="0.5" stroke="#9ed36b" stroke-width="2" stroke-linecap="round" stroke-linejoin="round"/>
<path d="M43 59 L41 47 M43 59 L45 49" fill="none" fill-opacity="0.5" stroke="#9ed36b" stroke-width="2" stroke-linecap="round" stroke-linejoin="round"/>
<path d="M24 58 L22 42 M24 58 L26 44" fill="none" fill-opacity="0.5" stroke="#9ed36b" stroke-width="2" stroke-linecap="round" stroke-linejoin="round"/>
<path d="M49 95 L47 76 M49 95 L51 78" fill="none" fill-opacity="0.5" stroke="#9ed36b" stroke-width="2" stroke-linecap="round" stroke-linejoin="round"/>
<path d="M101 47 L99 37 M101 47 L103 39" fill="none" fill-opacity="0.5" stroke="#9ed36b" stroke-width="2" stroke-linecap="round" stroke-linejoin="round"/>
<path d="M47 62 L45 49 M47 62 L49 51" fill="none" fill-opacity="0.5" stroke="#9ed36b" stroke-width="2" stroke-linecap="round" stroke-linejoin="round"/>
<path d="M98 58 L96 38 M98 58 L100 40" fill="none" fill-opacity="0.5" stroke="#9ed36b" stroke-width="2" stroke-linecap="round" stroke-linejoin="round"/>
<path d="M47 34 L45 19 M47 34 L49 21" fill="none" fill-opacity="0.5" stroke="#9ed36b" stroke-width="2" stroke-linecap="round" stroke-linejoin="round"/>
<path d="M72 82 L70 71 M72 82 L74 73" fill="none" fill-opacity="0.5" stroke="#9ed36b" stroke-width="2" stroke-linecap="round" stroke-linejoin="round"/>
<path d="M67 89 L65 73 M67 89 L69 75" fill="none" fill-opacity="0.5" stroke="#9ed36b" stroke-width="2" stroke-linecap="round" stroke-linejoin="round"/>
<path d="M65 64 L63 45 M65 64 L67 47" fill="none" fill-opacity="0.5" stroke="#9ed36b" stroke-width="2" stroke-linecap="round" stroke-linejoin="round"/>
</svg>