<svg xmlns="http://www.w3.org/2000/svg" width="128" height="128" viewBox="0 0 128 128">
<polygon points="100.2,64.0 100.3,78.7 82.6,92.1 64.0,95.0 47.8,86.1 34.8,79.2 22.3,64.0 34.9,51.9 47.4,42.2 64.0,35.9 79.5,42.3 99.4,49.0" fill="#5b8f43" fill-opacity="0.88"/>
<path d="M89 63 L87 50 M89 63 L91 52" fill="none" fill-opacity="0.5" stroke="#9ed36b" stroke-width="2" stroke-linecap="round" stroke-linejoin="round"/>
<path d="M99 91 L97 80 M99 91 L101 82" fill="none" fill-opacity="0.5" stroke="#9ed36b" stroke-width="2" stroke-linecap="round" stroke-linejoin="round"/>
<path d="M64 59 L62 46 M64 59 L66 48" fill="none" fill-opacity="0.5" stroke="#9ed36b" stroke-width="2" stroke-linecap="round" stroke-linejoin="round"/>
<path d="M56 73 L54 58 M56 73 L58 60" fill="none" fill-opacity="0.5" stroke="#9ed36b" stroke-width="2" stroke-linecap="round" stroke-linejoin="round"/>
<path d="M44 45 L42 25 M44 45 L46 27" fill="none" fill-opacity="0.5" stroke="#9ed36b" stroke-width="2" stroke-linecap="round" stroke-linejoin="round"/>
<path d="M64 70 L62 58 M64 70 L66 60" fill="none" fill-opacity="0.5" stroke="#9ed36b" stroke-width="2" stroke-linecap="round" stroke-linejoin="round"/>
<path d="M60 68 L58 54 M60 68 L62 56" fill="none" fill-opacity="0.5" stroke="#9ed36b" stroke-width="2" stroke-linecap="round" stroke-linejoin="round"/>
<path d="M51 56 L49 38 M51 56 L53 40" fill="none" fill-opacity="0.5" stroke="#9ed36b" stroke-width="2" stroke-linecap="round" stroke-linejoin="round"/>
<path d="M89 46 L87 30 M89 46 L91 32" fill="none" fill-opacity="0.5" stroke="#9ed36b" stroke-width="2" stroke-linecap="round" stroke-linejoin="round"/>
<path d="M50 57 L48 47 M50 57 L52 49" fill="none" fill-opacity="0.5" stroke="#9ed36b" stroke-width="2" stroke-linecap="round" stroke-linejoin="round"/>
<path d="M36 32 L34 15 M36 32 L38 17" fill="none" fill-opacity="0.5" stroke="#9ed36b" stroke-width="2" stroke-linecap="round" stroke-linejoin="round"/>
<path d="M73 82 L71 63 M73 82 L75 65" fill="none" fill-opacity="0.5" stroke="#9ed36b" stroke-width="2" stroke-linecap="round" stroke-linejoin="round"/>
<path d="M79 81 L77 63 M79 81 L81 65" fill="none" fill-opacity="0.5" stroke="#9ed36b" stroke-width="2" stroke-linecap="round" stroke-linejoin="round"/>
<path d="M72 43 L70 33 M72 43 L74 35" fill="none" fill-opacity="0.5" stroke="#9ed36b" stroke-width="2" stroke-linecap="round" stroke-linejoin="round"/>
<path d="M27 82 L25 67 M27 82 L29 69" fill="none" fill-opacity="0.5" stroke="#9ed36b" stroke-width="2" stroke-linecap="round" stroke-linejoin="round"/>
<path d="M61 59 L59 47 M61 59 L63 49" fill="none" fill-opacity="0.5" stroke="#9ed36b" stroke-width="2" stroke-linecap="round" stroke-linejoin="round"/>
<path d="M73 85 L71 66 M73 85 L75 68" fill="none" fill-opacity="0.5" stroke="#9ed36b" stroke-width="2" stroke-linecap="round" stroke-linejoin="round"/>
<path d="M65 93 L63 79 M65 93 L67 81" fill="none" fill-opacity="0.5" stroke="#9ed36b" stroke-width="2" stroke-linecap="round" stroke-linejoin="round"/>
<path d="M68 86 L66 72 M68 86 L70 74" fill="none" fill-opacity="0.5" stroke="#9ed36b" stroke-width="2" stroke-linecap="round" stroke-linejoin="round"/>
<path d="M59 80 L57 66 M59 80 L61 68" fill="none" fill-opacity="0.5" stroke="#9ed36b" stroke-width="2" stroke-linecap="round" stroke-linejoin="round"/>
</svg>