<svg xmlns="http://www.w3.org/2000/svg" width="128" height="128" viewBox="0 0 128 128">
<rect x="60" y="67" width="16" height="7" fill="#f2eddf" fill-opacity="0.85" rx="1" ry="1" stroke="#a9a292" stroke-width="0.5" transform="rotate(10 68.0 70.5)"/>
<rect x="22" y="69" width="9" height="11" fill="#cfc9bc" fill-opacity="0.85" rx="1" ry="1" stroke="#a9a292" stroke-width="0.5" transform="rotate(32 26.5 74.5)"/>
<rect x="32" y="41" width="11" height="14" fill="#f2eddf" fill-opacity="0.85" rx="1" ry="1" stroke="#a9a292" stroke-width="0.5" transform="rotate(16 37.5 48.0)"/>
<rect x="45" y="48" width="16" height="6" fill="#f2eddf" fill-opacity="0.85" rx="1" ry="1" stroke="#a9a292" stroke-width="0.5" transform="rotate(-19 53.0 51.0)"/>
<rect x="95" y="46" width="18" height="12" fill="#ddd7c9" fill-opacity="0.85" rx="1" ry="1" stroke="#a9a292" stroke-width="0.5" transform="rotate(-32 104.0 52.0)"/>
<rect x="83" y="53" width="14" height="7" fill="#ddd7c9" fill-opacity="0.85" rx="1" ry="1" stroke="#a9a292" stroke-width="0.5" transform="rotate(-21 90.0 56.5)"/>
<rect x="41" y="31" width="17" height="11" fill="#cfc9bc" fill-opacity="0.85" rx="1" ry="1" stroke="#a9a292" stroke-width="0.5" transform="rotate(-25 49.5 36.5)"/>
<rect x="99" y="68" width="11" height="8" fill="#f2eddf" fill-opacity="0.85" rx="1" ry="1" stroke="#a9a292" stroke-width="0.5" transform="rotate(39 104.5 72.0)"/>
<rect x="63" y="23" width="10" height="13" fill="#ddd7c9" fill-opacity="0.85" rx="1" ry="1" stroke="#a9a292" stroke-width="0.5" transform="rotate(-4 68.0 29.5)"/>
<rect x="20" y="75" width="10" height="11" fill="#f2eddf" fill-opacity="0.85" rx="1" ry="1" stroke="#a9a292" stroke-width="0.5" transform="rotate(-31 25.0 80.5)"/>
<rect x="88" y="92" width="11" height="12" fill="#ddd7c9" fill-opacity="0.85" rx="1" ry="1" stroke="#a9a292" stroke-width="0.5" transform="rotate(40 93.5 98.0)"/>
<rect x="85" y="83" width="9" height="8" fill="#cfc9bc" fill-opacity="0.85" rx="1" ry="1" stroke="#a9a292" stroke-width="0.5" transform="rotate(12 89.5 87.0)"/>
<rect x="70" y="69" width="15" height="8" fill="#f2eddf" fill-opacity="0.85" rx="1" ry="1" stroke="#a9a292" stroke-width="0.5" transform="rotate(-5 77.5 73.0)"/>
<rect x="103" y="36" width="12" height="7" fill="#f2eddf" fill-opacity="0.85" rx="1" ry="1" stroke="#a9a292" stroke-width="0.5" transform="rotate(-33 109.0 39.5)"/>
</svg>