<svg xmlns="http://www.w3.org/2000/svg" width="128" height="128" viewBox="0 0 128 128">
<rect x="86" y="74" width="12" height="13" fill="#ddd7c9" fill-opacity="0.85" rx="1" ry="1" stroke="#a9a292" stroke-width="0.5" transform="rotate(18 92.0 80.5)"/>
<rect x="65" y="50" width="17" height="11" fill="#f2eddf" fill-opacity="0.85" rx="1" ry="1" stroke="#a9a292" stroke-width="0.5" transform="rotate(-12 73.5 55.5)"/>
<rect x="104" y="87" width="18" height="7" fill="#cfc9bc" fill-opacity="0.85" rx="1" ry="1" stroke="#a9a292" stroke-width="0.5" transform="rotate(31 113.0 90.5)"/>
<rect x="103" y="46" width="13" height="6" fill="#ddd7c9" fill-opacity="0.85" rx="1" ry="1" stroke="#a9a292" stroke-width="0.5" transform="rotate(13 109.5 49.0)"/>
<rect x="67" y="38" width="8" height="13" fill="#f2eddf" fill-opacity="0.85" rx="1" ry="1" stroke="#a9a292" stroke-width="0.5" transform="rotate(14 71.0 44.5)"/>
<rect x="82" y="68" width="14" height="7" fill="#cfc9bc" fill-opacity="0.85" rx="1" ry="1" stroke="#a9a292" stroke-width="0.5" transform="rotate(-35 89.0 71.5)"/>
<rect x="90" y="87" width="16" height="8" fill="#cfc9bc" fill-opacity="0.85" rx="1" ry="1" stroke="#a9a292" stroke-width="0.5" transform="rotate(25 98.0 91.0)"/>
<rect x="36" y="99" width="12" height="7" fill="#ddd7c9" fill-opacity="0.85" rx="1" ry="1" stroke="#a9a292" stroke-width="0.5" transform="rotate(-21 42.0 102.5)"/>
</svg>