<svg xmlns="http://www.w3.org/2000/svg" width="128" height="128" viewBox="0 0 128 128">
<rect x="72" y="39" width="14" height="6" fill="#ddd7c9" fill-opacity="0.85" rx="1" ry="1" stroke="#a9a292" stroke-width="0.5" transform="rotate(-19 79.0 42.0)"/>
<rect x="59" y="35" width="16" height="6" fill="#f2eddf" fill-opacity="0.85" rx="1" ry="1" stroke="#a9a292" stroke-width="0.5" transform="rotate(-9 67.0 38.0)"/>
<rect x="53" y="45" width="15" height="8" fill="#f2eddf" fill-opacity="0.85" rx="1" ry="1" stroke="#a9a292" stroke-width="0.5" transform="rotate(33 60.5 49.0)"/>
<rect x="51" y="83" width="17" height="14" fill="#cfc9bc" fill-opacity="0.85" rx="1" ry="1" stroke="#a9a292" stroke-width="0.5" transform="rotate(39 59.5 90.0)"/>
<rect x="67" y="68" width="17" height="11" fill="#cfc9bc" fill-opacity="0.85" rx="1" ry="1" stroke="#a9a292" stroke-width="0.5" transform="rotate(-15 75.5 73.5)"/>
<rect x="28" y="90" width="8" height="11" fill="#cfc9bc" fill-opacity="0.85" rx="1" ry="1" stroke="#a9a292" stroke-width="0.5" transform="rotate(27 32.0 95.5)"/>
<rect x="31" y="95" width="10" height="11" fill="#f2eddf" fill-opacity="0.85" rx="1" ry="1" stroke="#a9a292" stroke-width="0.5" transform="rotate(-32 36.0 100.5)"/>
<rect x="52" y="65" width="10" height="6" fill="#ddd7c9" fill-opacity="0.85" rx="1" ry="1" stroke="#a9a292" stroke-width="0.5" transform="rotate(21 57.0 68.0)"/>
<rect x="33" y="78" width="10" height="9" fill="#cfc9bc" fill-opacity="0.85" rx="1" ry="1" stroke="#a9a292" stroke-width="0.5" transform="rotate(35 38.0 82.5)"/>
<rect x="27" y="60" width="13" height="12" fill="#ddd7c9" fill-opacity="0.85" rx="1" ry="1" stroke="#a9a292" stroke-width="0.5" transform="rotate(-31 33.5 66.0)"/>
</svg>