<svg xmlns="http://www.w3.org/2000/svg" width="128" height="128" viewBox="0 0 128 128">
<polygon points="77.5,68.0 71.2,74.0 59.0,81.4 48.0,78.6 38.0,82.5 31.2,75.5 26.0,68.0 23.5,60.7 36.7,57.0 48.0,53.1 59.5,56.1 69.2,61.8" fill="#5d98b6" fill-opacity="0.55"/>
<polygon points="71.0,67.0 67.1,73.2 56.9,76.7 47.6,75.0 39.0,75.0 35.4,69.9 33.9,64.7 38.6,60.2 47.5,56.0 58.9,59.4 68.4,61.6" fill="#7db8d4" fill-opacity="0.42"/>
<ellipse cx="36" cy="65" rx="11" ry="6" fill="#dff4ff" fill-opacity="0.25"/>
<ellipse cx="46" cy="62" rx="10" ry="3" fill="#dff4ff" fill-opacity="0.25"/>
<ellipse cx="86" cy="56" rx="18" ry="8" fill="#7db8d4" fill-opacity="0.3"/>
</svg>