<svg xmlns="http://www.w3.org/2000/svg" width="128" height="128" viewBox="0 0 128 128">
<polygon points="97.0,68.0 92.9,76.9 85.1,81.1 64.0,84.5 48.6,82.1 27.3,76.1 16.4,68.0 31.5,61.1 47.7,52.0 64.0,51.1 83.4,54.1 93.8,59.9" fill="#5d98b6" fill-opacity="0.55"/>
<polygon points="102.3,67.0 93.7,73.5 76.9,75.1 61.5,76.0 47.4,76.6 32.5,69.6 42.5,64.3 43.5,60.5 62.2,58.1 76.4,57.0 87.7,61.4" fill="#7db8d4" fill-opacity="0.42"/>
<ellipse cx="53" cy="71" rx="13" ry="4" fill="#dff4ff" fill-opacity="0.25"/>
<ellipse cx="55" cy="67" rx="12" ry="6" fill="#dff4ff" fill-opacity="0.25"/>
<ellipse cx="46" cy="69" rx="16" ry="4" fill="#dff4ff" fill-opacity="0.25"/>
</svg>