<svg xmlns="http://www.w3.org/2000/svg" width="128" height="128" viewBox="0 0 128 128">
<polygon points="107.8,64.0 100.3,79.2 86.3,90.5 64.0,89.5 45.5,94.3 25.3,77.7 21.7,64.0 30.1,49.5 46.7,38.7 64.0,32.1 81.9,41.5 91.1,46.7" fill="#c7ad73" fill-opacity="0.86"/>
<polygon points="100.8,64.0 88.5,78.5 77.6,87.2 61.2,84.7 41.5,83.5 39.7,70.5 35.8,58.0 47.2,47.4 61.1,43.1 79.5,43.7 89.5,51.8" fill="#d8c38c" fill-opacity="0.45"/>
<circle cx="92" cy="61" r="1" fill="#a78f5f" fill-opacity="0.35"/>
<circle cx="80" cy="77" r="2" fill="#a78f5f" fill-opacity="0.35"/>
<circle cx="39" cy="48" r="2" fill="#a78f5f" fill-opacity="0.35"/>
<circle cx="73" cy="58" r="1" fill="#a78f5f" fill-opacity="0.35"/>
<circle cx="49" cy="60" r="1" fill="#a78f5f" fill-opacity="0.35"/>
<circle cx="63" cy="80" r="1" fill="#a78f5f" fill-opacity="0.35"/>
<circle cx="58" cy="59" r="2" fill="#a78f5f" fill-opacity="0.35"/>
<circle cx="80" cy="46" r="2" fill="#a78f5f" fill-opacity="0.35"/>
<circle cx="46" cy="51" r="2" fill="#a78f5f" fill-opacity="0.35"/>
<circle cx="33" cy="76" r="2" fill="#a78f5f" fill-opacity="0.35"/>
<circle cx="93" cy="69" r="1" fill="#a78f5f" fill-opacity="0.35"/>
<circle cx="35" cy="58" r="1" fill="#a78f5f" fill-opacity="0.35"/>
<circle cx="63" cy="67" r="2" fill="#a78f5f" fill-opacity="0.35"/>
<circle cx="67" cy="81" r="1" fill="#a78f5f" fill-opacity="0.35"/>
</svg>