<svg xmlns="http://www.w3.org/2000/svg" width="128" height="128" viewBox="0 0 128 128">
<polygon points="113.5,64.0 98.1,74.5 89.2,81.7 64.0,86.9 40.9,83.8 23.2,75.1 12.8,64.0 24.0,55.0 43.4,47.5 64.0,38.4 86.0,43.2 97.6,51.6" fill="#c7ad73" fill-opacity="0.86"/>
<polygon points="97.3,64.0 95.8,72.1 82.7,77.3 59.6,80.1 37.5,75.6 30.7,68.6 31.8,59.9 40.8,52.7 59.5,49.4 79.7,48.6 100.8,55.9" fill="#d8c38c" fill-opacity="0.45"/>
<circle cx="50" cy="67" r="1" fill="#a78f5f" fill-opacity="0.35"/>
<circle cx="73" cy="66" r="1" fill="#a78f5f" fill-opacity="0.35"/>
<circle cx="65" cy="69" r="1" fill="#a78f5f" fill-opacity="0.35"/>
<circle cx="90" cy="69" r="1" fill="#a78f5f" fill-opacity="0.35"/>
<circle cx="92" cy="48" r="1" fill="#a78f5f" fill-opacity="0.35"/>
<circle cx="99" cy="56" r="2" fill="#a78f5f" fill-opacity="0.35"/>
<circle cx="63" cy="52" r="1" fill="#a78f5f" fill-opacity="0.35"/>
<circle cx="98" cy="71" r="2" fill="#a78f5f" fill-opacity="0.35"/>
<circle cx="85" cy="75" r="1" fill="#a78f5f" fill-opacity="0.35"/>
<circle cx="84" cy="60" r="2" fill="#a78f5f" fill-opacity="0.35"/>
<circle cx="27" cy="78" r="1" fill="#a78f5f" fill-opacity="0.35"/>
<circle cx="86" cy="48" r="1" fill="#a78f5f" fill-opacity="0.35"/>
<circle cx="45" cy="63" r="2" fill="#a78f5f" fill-opacity="0.35"/>
<circle cx="77" cy="61" r="1" fill="#a78f5f" fill-opacity="0.35"/>
</svg>