<svg xmlns="http://www.w3.org/2000/svg" width="192" height="128" viewBox="0 0 192 128">

<path d="M8 42 C17 17, 45 13, 77 18 C105 12, 136 18, 160 31 C178 42, 184 73, 172 94 C158 119, 124 126, 91 116 C61 124, 27 118, 14 94 C7 78, 2 59, 8 42 Z" fill="#d9c078" opacity="0.88"/>
<path d="M8 42 C17 17, 45 13, 77 18 C105 12, 136 18, 160 31 C178 42, 184 73, 172 94 C158 119, 124 126, 91 116 C61 124, 27 118, 14 94 C7 78, 2 59, 8 42 Z" fill="none" stroke="#ead9a6" stroke-width="2.5" opacity="0.45"/>
<circle cx="170.8" cy="107.1" r="1.6" fill="#c8a455" opacity="0.33"/>
<circle cx="151.0" cy="87.2" r="2.8" fill="#c8a455" opacity="0.36"/>
<circle cx="113.4" cy="75.0" r="2.7" fill="#c8a455" opacity="0.34"/>
<circle cx="84.6" cy="55.0" r="2.9" fill="#c8a455" opacity="0.45"/>
<circle cx="169.7" cy="69.2" r="2.4" fill="#c8a455" opacity="0.35"/>
<circle cx="19.9" cy="20.6" r="2.4" fill="#c8a455" opacity="0.36"/>
<circle cx="76.3" cy="101.8" r="2.6" fill="#c8a455" opacity="0.39"/>
<circle cx="52.7" cy="20.2" r="2.2" fill="#c8a455" opacity="0.33"/>
<circle cx="97.7" cy="111.9" r="2.8" fill="#c8a455" opacity="0.34"/>
<circle cx="160.5" cy="92.9" r="3.0" fill="#c8a455" opacity="0.44"/>
<circle cx="139.1" cy="92.2" r="2.2" fill="#c8a455" opacity="0.45"/>
<circle cx="171.8" cy="33.2" r="3.0" fill="#c8a455" opacity="0.41"/>
<circle cx="89.7" cy="67.9" r="2.5" fill="#c8a455" opacity="0.44"/>
<circle cx="96.1" cy="96.2" r="2.2" fill="#c8a455" opacity="0.43"/>
<circle cx="161.6" cy="61.3" r="2.6" fill="#c8a455" opacity="0.44"/>
<circle cx="132.7" cy="63.7" r="1.9" fill="#c8a455" opacity="0.36"/>
<circle cx="128.7" cy="33.6" r="3.3" fill="#c8a455" opacity="0.35"/>
<circle cx="163.5" cy="47.1" r="3.4" fill="#c8a455" opacity="0.41"/>
<circle cx="96.7" cy="66.7" r="2.8" fill="#c8a455" opacity="0.39"/>
<circle cx="65.1" cy="37.5" r="2.5" fill="#c8a455" opacity="0.44"/>
<circle cx="116.2" cy="25.1" r="3.1" fill="#c8a455" opacity="0.41"/>
<circle cx="162.9" cy="36.0" r="3.0" fill="#c8a455" opacity="0.32"/>
<circle cx="121.1" cy="43.7" r="2.0" fill="#c8a455" opacity="0.43"/>
<circle cx="31.4" cy="67.1" r="3.2" fill="#c8a455" opacity="0.35"/>
<circle cx="48.5" cy="100.8" r="2.3" fill="#c8a455" opacity="0.41"/>
<circle cx="19.2" cy="52.1" r="1.8" fill="#c8a455" opacity="0.41"/>
<circle cx="27.6" cy="107.7" r="1.6" fill="#c8a455" opacity="0.41"/>
<circle cx="17.5" cy="42.0" r="3.1" fill="#c8a455" opacity="0.34"/>

</svg>