<svg xmlns="http://www.w3.org/2000/svg" width="128" height="128" viewBox="0 0 128 128">

<path d="M11 35 C16 18, 34 13, 54 15 C74 10, 96 18, 107 35 C116 50, 117 72, 104 92 C90 111, 64 115, 40 105 C18 98, 7 68, 11 35 Z" fill="#d9c078" opacity="0.88"/>
<path d="M11 35 C16 18, 34 13, 54 15 C74 10, 96 18, 107 35 C116 50, 117 72, 104 92 C90 111, 64 115, 40 105 C18 98, 7 68, 11 35 Z" fill="none" stroke="#ead9a6" stroke-width="2.5" opacity="0.45"/>
<circle cx="28.9" cy="92.6" r="3.0" fill="#c8a455" opacity="0.35"/>
<circle cx="63.6" cy="57.6" r="2.8" fill="#c8a455" opacity="0.42"/>
<circle cx="25.0" cy="20.5" r="3.2" fill="#c8a455" opacity="0.37"/>
<circle cx="89.2" cy="18.2" r="2.4" fill="#c8a455" opacity="0.41"/>
<circle cx="38.0" cy="101.2" r="3.3" fill="#c8a455" opacity="0.32"/>
<circle cx="18.4" cy="65.6" r="3.4" fill="#c8a455" opacity="0.37"/>
<circle cx="36.8" cy="55.1" r="1.6" fill="#c8a455" opacity="0.34"/>
<circle cx="58.0" cy="61.6" r="2.0" fill="#c8a455" opacity="0.35"/>
<circle cx="37.0" cy="58.4" r="2.1" fill="#c8a455" opacity="0.32"/>
<circle cx="96.4" cy="67.0" r="2.8" fill="#c8a455" opacity="0.34"/>
<circle cx="111.3" cy="93.7" r="1.7" fill="#c8a455" opacity="0.36"/>
<circle cx="85.3" cy="80.6" r="3.4" fill="#c8a455" opacity="0.37"/>
<circle cx="95.7" cy="77.0" r="2.1" fill="#c8a455" opacity="0.39"/>
<circle cx="100.7" cy="92.5" r="2.5" fill="#c8a455" opacity="0.39"/>
<circle cx="19.3" cy="39.4" r="3.1" fill="#c8a455" opacity="0.37"/>
<circle cx="32.6" cy="66.3" r="2.9" fill="#c8a455" opacity="0.41"/>
<circle cx="52.0" cy="56.6" r="2.5" fill="#c8a455" opacity="0.42"/>
<circle cx="66.0" cy="52.6" r="2.5" fill="#c8a455" opacity="0.32"/>

</svg>