<svg xmlns="http://www.w3.org/2000/svg" width="128" height="128" viewBox="0 0 128 128">
<polygon points="94.8,64.0 92.4,74.5 80.4,81.9 64.0,88.6 47.9,87.1 39.5,78.1 30.8,64.0 35.8,52.3 50.0,41.7 64.0,39.2 81.8,40.2 93.3,51.8" fill="#c7ad73" fill-opacity="0.86"/>
<polygon points="93.0,64.0 87.0,75.5 77.4,82.5 61.1,84.5 45.4,78.6 41.6,69.2 34.2,58.6 47.5,49.3 61.5,46.5 77.6,47.1 87.6,52.3" fill="#d8c38c" fill-opacity="0.45"/>
<circle cx="51" cy="58" r="1" fill="#a78f5f" fill-opacity="0.35"/>
<circle cx="49" cy="72" r="1" fill="#a78f5f" fill-opacity="0.35"/>
<circle cx="71" cy="73" r="1" fill="#a78f5f" fill-opacity="0.35"/>
<circle cx="81" cy="80" r="2" fill="#a78f5f" fill-opacity="0.35"/>
<circle cx="58" cy="76" r="1" fill="#a78f5f" fill-opacity="0.35"/>
<circle cx="44" cy="70" r="2" fill="#a78f5f" fill-opacity="0.35"/>
<circle cx="40" cy="57" r="2" fill="#a78f5f" fill-opacity="0.35"/>
<circle cx="60" cy="74" r="2" fill="#a78f5f" fill-opacity="0.35"/>
<circle cx="36" cy="57" r="2" fill="#a78f5f" fill-opacity="0.35"/>
<circle cx="76" cy="58" r="1" fill="#a78f5f" fill-opacity="0.35"/>
<circle cx="66" cy="75" r="2" fill="#a78f5f" fill-opacity="0.35"/>
<circle cx="50" cy="58" r="2" fill="#a78f5f" fill-opacity="0.35"/>
<circle cx="43" cy="52" r="1" fill="#a78f5f" fill-opacity="0.35"/>
<circle cx="38" cy="60" r="2" fill="#a78f5f" fill-opacity="0.35"/>
</svg>