<svg xmlns="http://www.w3.org/2000/svg" width="128" height="128" viewBox="0 0 128 128">

<path d="M11 37 C15 18, 35 12, 56 17 C72 10, 94 14, 108 24 C118 37, 118 56, 109 71 C99 86, 72 95, 48 90 C25 84, 10 63, 11 37 Z" fill="#2f2a2a" opacity="0.62"/>
<path d="M11 37 C15 18, 35 12, 56 17 C72 10, 94 14, 108 24 C118 37, 118 56, 109 71 C99 86, 72 95, 48 90 C25 84, 10 63, 11 37 Z" fill="none" stroke="#5f5654" stroke-width="2.5" opacity="0.45"/>
<circle cx="39.7" cy="26.0" r="1.7" fill="#b65a3a" opacity="0.30"/>
<circle cx="24.1" cy="43.3" r="2.7" fill="#b65a3a" opacity="0.38"/>
<circle cx="88.4" cy="32.9" r="2.0" fill="#b65a3a" opacity="0.31"/>
<circle cx="33.9" cy="26.2" r="1.4" fill="#b65a3a" opacity="0.39"/>
<circle cx="94.3" cy="66.8" r="2.4" fill="#b65a3a" opacity="0.30"/>
<circle cx="46.5" cy="56.4" r="2.3" fill="#b65a3a" opacity="0.38"/>
<circle cx="99.0" cy="25.0" r="2.1" fill="#b65a3a" opacity="0.36"/>
<circle cx="64.5" cy="30.3" r="1.9" fill="#b65a3a" opacity="0.29"/>
<circle cx="104.0" cy="70.2" r="2.0" fill="#b65a3a" opacity="0.32"/>
<circle cx="101.6" cy="53.2" r="2.6" fill="#b65a3a" opacity="0.38"/>
<circle cx="64.8" cy="44.0" r="2.1" fill="#b65a3a" opacity="0.33"/>
<circle cx="32.8" cy="37.7" r="2.5" fill="#b65a3a" opacity="0.29"/>
<circle cx="22.3" cy="56.3" r="1.5" fill="#b65a3a" opacity="0.34"/>
<circle cx="61.4" cy="39.9" r="2.8" fill="#b65a3a" opacity="0.30"/>
<circle cx="56.0" cy="31.8" r="2.1" fill="#b65a3a" opacity="0.31"/>

</svg>