<svg xmlns="http://www.w3.org/2000/svg" width="128" height="128" viewBox="0 0 128 128">
<polygon points="95.8,64.0 90.4,72.0 78.7,78.3 64.0,83.2 54.6,81.4 45.8,73.0 33.2,64.0 38.3,56.0 51.1,51.1 64.0,49.6 80.1,50.4 87.9,54.8" fill="#262321" fill-opacity="0.55"/>
<polygon points="86.0,64.0 78.6,69.8 68.3,73.4 58.1,74.0 48.2,71.8 45.5,64.0 52.3,57.7 58.8,50.2 70.2,52.9 76.1,57.3" fill="#3a3028" fill-opacity="0.35"/>
<circle cx="57" cy="56" r="3" fill="#5a4d3c" fill-opacity="0.25"/>
<circle cx="98" cy="51" r="2" fill="#4f4336" fill-opacity="0.25"/>
<circle cx="65" cy="28" r="1" fill="#191817" fill-opacity="0.25"/>
<circle cx="45" cy="88" r="3" fill="#191817" fill-opacity="0.25"/>
<circle cx="79" cy="40" r="2" fill="#5a4d3c" fill-opacity="0.25"/>
<circle cx="46" cy="90" r="1" fill="#5a4d3c" fill-opacity="0.25"/>
<circle cx="44" cy="34" r="2" fill="#191817" fill-opacity="0.25"/>
<circle cx="94" cy="82" r="1" fill="#191817" fill-opacity="0.25"/>
<circle cx="48" cy="48" r="1" fill="#4f4336" fill-opacity="0.25"/>
<circle cx="80" cy="39" r="2" fill="#5a4d3c" fill-opacity="0.25"/>
</svg>