<svg xmlns="http://www.w3.org/2000/svg" width="64" height="64" viewBox="0 0 64 64">

<path d="M15 33 C18 19, 33 12, 46 18 C54 26, 54 42, 46 50 C37 56, 21 54, 15 44 C11 40, 12 36, 15 33 Z" fill="#2f2a2a" opacity="0.62"/>
<path d="M15 33 C18 19, 33 12, 46 18 C54 26, 54 42, 46 50 C37 56, 21 54, 15 44 C11 40, 12 36, 15 33 Z" fill="none" stroke="#5f5654" stroke-width="2.5" opacity="0.45"/>
<circle cx="24.7" cy="34.1" r="1.6" fill="#b65a3a" opacity="0.35"/>
<circle cx="35.5" cy="21.7" r="1.0" fill="#b65a3a" opacity="0.38"/>
<circle cx="25.3" cy="26.1" r="2.5" fill="#b65a3a" opacity="0.34"/>
<circle cx="41.4" cy="32.4" r="2.0" fill="#b65a3a" opacity="0.30"/>
<circle cx="35.8" cy="42.6" r="1.8" fill="#b65a3a" opacity="0.37"/>
<circle cx="36.8" cy="21.7" r="2.1" fill="#b65a3a" opacity="0.35"/>
<circle cx="26.4" cy="20.8" r="2.3" fill="#b65a3a" opacity="0.34"/>
<circle cx="38.1" cy="42.8" r="2.1" fill="#b65a3a" opacity="0.39"/>

</svg>