<svg xmlns="http://www.w3.org/2000/svg" width="128" height="128" viewBox="0 0 128 128">
<polygon points="105.6,64.0 97.8,79.1 83.7,87.9 64.0,86.2 42.6,82.7 25.9,78.3 27.2,64.0 31.6,50.7 40.6,40.0 64.0,43.8 85.4,42.4 92.3,49.0" fill="#262321" fill-opacity="0.55"/>
<polygon points="93.2,64.0 84.1,78.0 74.3,87.3 54.8,81.4 37.7,73.5 35.3,64.0 38.1,51.9 54.1,48.4 73.6,42.2 82.5,54.6" fill="#3a3028" fill-opacity="0.35"/>
<circle cx="99" cy="35" r="3" fill="#191817" fill-opacity="0.25"/>
<circle cx="84" cy="59" r="3" fill="#4f4336" fill-opacity="0.25"/>
<circle cx="86" cy="88" r="1" fill="#4f4336" fill-opacity="0.25"/>
<circle cx="43" cy="90" r="1" fill="#191817" fill-opacity="0.25"/>
<circle cx="63" cy="96" r="1" fill="#5a4d3c" fill-opacity="0.25"/>
<circle cx="51" cy="91" r="2" fill="#4f4336" fill-opacity="0.25"/>
<circle cx="79" cy="80" r="2" fill="#5a4d3c" fill-opacity="0.25"/>
<circle cx="88" cy="94" r="1" fill="#191817" fill-opacity="0.25"/>
<circle cx="34" cy="66" r="1" fill="#4f4336" fill-opacity="0.25"/>
<circle cx="53" cy="79" r="2" fill="#4f4336" fill-opacity="0.25"/>
<circle cx="80" cy="35" r="1" fill="#5a4d3c" fill-opacity="0.25"/>
<circle cx="52" cy="30" r="3" fill="#191817" fill-opacity="0.25"/>
<circle cx="44" cy="52" r="1" fill="#5a4d3c" fill-opacity="0.25"/>
<circle cx="26" cy="75" r="3" fill="#4f4336" fill-opacity="0.25"/>
<circle cx="49" cy="91" r="3" fill="#5a4d3c" fill-opacity="0.25"/>
<circle cx="83" cy="80" r="2" fill="#191817" fill-opacity="0.25"/>
<circle cx="92" cy="61" r="3" fill="#4f4336" fill-opacity="0.25"/>
<circle cx="71" cy="30" r="2" fill="#191817" fill-opacity="0.25"/>
</svg>