<svg xmlns="http://www.w3.org/2000/svg" width="128" height="128" viewBox="0 0 128 128">
<ellipse cx="24" cy="76" rx="9" ry="8" fill="#556d52" fill-opacity="0.2"/>
<ellipse cx="25" cy="75" rx="5" ry="4" fill="#7e9d7a" fill-opacity="0.12"/>
<ellipse cx="70" cy="29" rx="18" ry="12" fill="#556d52" fill-opacity="0.2"/>
<ellipse cx="71" cy="28" rx="10" ry="6" fill="#7e9d7a" fill-opacity="0.12"/>
<ellipse cx="83" cy="93" rx="11" ry="13" fill="#556d52" fill-opacity="0.2"/>
<ellipse cx="84" cy="92" rx="6" ry="7" fill="#7e9d7a" fill-opacity="0.12"/>
<ellipse cx="107" cy="35" rx="11" ry="12" fill="#556d52" fill-opacity="0.2"/>
<ellipse cx="108" cy="34" rx="6" ry="6" fill="#7e9d7a" fill-opacity="0.12"/>
<ellipse cx="24" cy="77" rx="9" ry="9" fill="#556d52" fill-opacity="0.2"/>
<ellipse cx="25" cy="76" rx="5" ry="4" fill="#7e9d7a" fill-opacity="0.12"/>
<ellipse cx="84" cy="50" rx="11" ry="10" fill="#556d52" fill-opacity="0.2"/>
<ellipse cx="85" cy="49" rx="6" ry="5" fill="#7e9d7a" fill-opacity="0.12"/>
<ellipse cx="25" cy="69" rx="18" ry="7" fill="#556d52" fill-opacity="0.2"/>
<ellipse cx="26" cy="68" rx="10" ry="3" fill="#7e9d7a" fill-opacity="0.12"/>
<ellipse cx="87" cy="62" rx="11" ry="9" fill="#556d52" fill-opacity="0.2"/>
<ellipse cx="88" cy="61" rx="6" ry="4" fill="#7e9d7a" fill-opacity="0.12"/>
</svg>