<svg xmlns="http://www.w3.org/2000/svg" width="128" height="128" viewBox="0 0 128 128">
  <defs>
    <clipPath id="tape-cross-horizontal">
      <rect x="14" y="56" width="100" height="16" rx="3"/>
    </clipPath>
    <clipPath id="tape-cross-vertical">
      <rect x="56" y="14" width="16" height="100" rx="3"/>
    </clipPath>
  </defs>

  <g opacity="0.96">
    <rect x="15" y="57" width="100" height="16" rx="3" fill="#000" opacity="0.14"/>
    <rect x="57" y="15" width="16" height="100" rx="3" fill="#000" opacity="0.14"/>

    <rect x="14" y="56" width="100" height="16" rx="3" fill="#f3d447"/>
    <g clip-path="url(#tape-cross-horizontal)" fill="#302d20" opacity="0.94">
      <polygon points="-10,56 0,56 16,72 6,72"/>
      <polygon points="14,56 24,56 40,72 30,72"/>
      <polygon points="38,56 48,56 64,72 54,72"/>
      <polygon points="62,56 72,56 88,72 78,72"/>
      <polygon points="86,56 96,56 112,72 102,72"/>
      <polygon points="110,56 120,56 136,72 126,72"/>
    </g>

    <rect x="56" y="14" width="16" height="100" rx="3" fill="#f3d447"/>
    <g clip-path="url(#tape-cross-vertical)" fill="#302d20" opacity="0.94">
      <polygon points="56,8 72,0 72,10 56,18"/>
      <polygon points="56,32 72,24 72,34 56,42"/>
      <polygon points="56,56 72,48 72,58 56,66"/>
      <polygon points="56,80 72,72 72,82 56,90"/>
      <polygon points="56,104 72,96 72,106 56,114"/>
      <polygon points="56,128 72,120 72,130 56,138"/>
    </g>
  </g>
</svg>
