<svg xmlns="http://www.w3.org/2000/svg" viewBox="0 0 32 32">
  <rect width="32" height="32" rx="8" fill="#441313"/>
  <path d="M7 25 25 7" stroke="#a83b3b" stroke-width="2.2" stroke-linecap="round" opacity="0.8"/>
  <path d="M10 24h12l-2 3H12z" fill="#261111"/>
  <circle cx="16" cy="10" r="5" fill="#d8c0b0"/>
  <rect x="11" y="15" width="10" height="8" rx="3" fill="#5b4f4f"/>
  <rect x="8" y="16" width="4" height="8" rx="2" fill="#bcaeae"/>
  <rect x="20" y="16" width="4" height="8" rx="2" fill="#bcaeae"/>
  <rect x="11" y="22" width="4" height="6" rx="2" fill="#2f1d1d"/>
  <rect x="17" y="22" width="4" height="6" rx="2" fill="#2f1d1d"/>
  <path d="M12 8.5l3 3m0-3-3 3" stroke="#1a0e0e" stroke-width="1.6" stroke-linecap="round"/>
  <path d="M17 8.5l3 3m0-3-3 3" stroke="#1a0e0e" stroke-width="1.6" stroke-linecap="round"/>
  <path d="M12.5 15.4c1.7-1.3 5.3-1.3 7 0" stroke="#1a0e0e" stroke-width="1.7" stroke-linecap="round"/>
</svg>
