<svg xmlns="http://www.w3.org/2000/svg" viewBox="0 0 32 32">
  <rect width="32" height="32" rx="8" fill="#2f1d16"/>
  <path d="M7.5 20c.8-3.2 4-5 8.5-5s7.7 1.8 8.5 5c-.6 2.2-2.2 3.5-4.5 3.5h-8c-2.3 0-3.9-1.3-4.5-3.5Z" fill="#d69b56"/>
  <path d="M8.5 18.4c1.2-1.5 2.7-2.4 4.2-2.4 1 0 2.2.4 3.3 1.1 1 .6 1.9.9 2.7.9 1 0 2.1-.5 3.3-1.4l1 2.1H8Z" fill="#7ec85f"/>
  <path d="M9 15.8h14l-1.6 2H10.6Z" fill="#6e3b2b"/>
  <path d="M10.5 14.6c1.8-2.7 8.3-2.7 10.1 0-.8 1.1-2.8 1.7-5 1.7s-4.3-.6-5.1-1.7Z" fill="#c7864d"/>
  <path d="M22.2 10.6l1.8 4.6-4.8-1.4Z" fill="#f0f0f0" opacity=".85"/>
</svg>
