<svg xmlns="http://www.w3.org/2000/svg" viewBox="0 0 32 32">
  <rect width="32" height="32" rx="8" fill="#24374a"/>
  
  <path d="M8 24c0-4 3-7 8-7 6 0 8 3 8 7v2H8z" fill="#4f6d8a"/>
  <path d="M12 6c1-1 3-2 4-2 3 0 6 3 6 6 0 5-5 8-8 8-4 0-6-3-6-6 0-2 1-4 4-6z" fill="#c5d7df"/>
  <circle cx="13.5" cy="10" r="1" fill="#0f1720"/>
  <circle cx="18.9" cy="9.8" r="1.4" fill="#0f1720"/>
  <path d="M12.4 14.4c1.8.5 4.6.3 6-.7" stroke="#627f8f" stroke-width="1.1" stroke-linecap="round"/>
  <path d="M8.5 11c2-3 4-5 8-7M14 18c4-1 7-4 10-8" stroke="#d3edf4" stroke-width=".9" opacity=".7"/>

</svg>
