<svg xmlns="http://www.w3.org/2000/svg" viewBox="0 0 32 32">
  
  <path d="M8 20c0-4 2.5-8 8-8s8 4 8 8v3H8z" fill="#6f7f83"/>
  <circle cx="13" cy="12" r="3.5" fill="#aeb7b1"/>
  <circle cx="19" cy="11" r="4.5" fill="#c2c7bd"/>
  <circle cx="12.5" cy="12" r="1.1" fill="#111"/>
  <circle cx="19.4" cy="11.2" r="1.2" fill="#111"/>
  <path d="M15 15c2 1 4 1 6 0" stroke="#2b2322" stroke-width="1.1" stroke-linecap="round"/>
  <path d="M9 18c1-2 2-3 4-4M23 18c-1-2-2-3-4-4" stroke="#5a666b" stroke-width="1.3" stroke-linecap="round"/>
  <path d="M10 24l-2 3M14 24l-1 3M18 24l1 3M22 24l2 3" stroke="#85918f" stroke-width="1.2" stroke-linecap="round"/>

</svg>

