<svg xmlns="http://www.w3.org/2000/svg" viewBox="0 0 32 32">
  <rect width="32" height="32" rx="8" fill="#4b6a43"/>
  
  <path d="M7 23c0-4.5 4-7 9-7s9 2.5 9 7v2H7z" fill="#7fa86a"/>
  <ellipse cx="16" cy="12.2" rx="6.2" ry="5.2" fill="#86b56f"/>
  <path d="M10 10L7.5 5.5 12 8.2M22 10l2.5-4.5L20 8.2" fill="#86b56f" stroke="#1d261a" stroke-width="1.1" stroke-linejoin="round"/>
  <circle cx="13.3" cy="11.7" r="1.2" fill="#111"/>
  <circle cx="18.7" cy="11.7" r="1.2" fill="#111"/>
  <path d="M12 14c2 1.2 6 1.2 8 0" stroke="#162013" stroke-width="1.2" stroke-linecap="round"/>
  <path d="M13.5 14.1l.8 1.4 1-1.2 1 1.2.8-1.4 1 1.3" stroke="#f1f0dd" stroke-width=".9" fill="none" stroke-linecap="round"/>
  <path d="M10 20c2 1 10 1 12 0" stroke="#d6e7c3" stroke-width="1" opacity=".65"/>

</svg>
