<svg xmlns="http://www.w3.org/2000/svg" viewBox="0 0 32 32">
  <defs>
    <linearGradient id="bg" x1="0" y1="0" x2="0" y2="1">
      <stop offset="0%" stop-color="#20382a"/>
      <stop offset="100%" stop-color="#12231a"/>
    </linearGradient>
    <linearGradient id="stone" x1="0" y1="0" x2="1" y2="1">
      <stop offset="0%" stop-color="#385842"/>
      <stop offset="100%" stop-color="#243a2c"/>
    </linearGradient>
  </defs>

  <rect width="32" height="32" rx="8" fill="url(#bg)"/>

  <rect x="5" y="6" width="22" height="20" rx="5" fill="url(#stone)" stroke="#4f7a5d" stroke-width="0.8"/>

  <path d="M12 6v20M20 6v20M5 12h22M5 19h22" stroke="#17261d" stroke-width="1.2" opacity="0.95"/>
  <path d="M12 6v20M20 6v20M5 12h22M5 19h22" stroke="#5f8e6d" stroke-width="0.55" opacity="0.35" transform="translate(0 -0.35)"/>

  <path d="M8 9l2 1 1 2M17 14l2 1 1 2M22 20l-2 1-1 2" stroke="#a9d0a8" stroke-width="0.9" stroke-linecap="round" stroke-linejoin="round" opacity="0.18"/>
  <path d="M9 22l2-2 1 1 1-2" stroke="#0b120d" stroke-width="1" stroke-linecap="round" stroke-linejoin="round" opacity="0.7"/>

  <path d="M7.5 7.5h17" stroke="#92c095" stroke-width="0.8" stroke-linecap="round" opacity="0.22"/>
  <path d="M6.5 24.5h19" stroke="#09100c" stroke-width="1" stroke-linecap="round" opacity="0.75"/>
</svg>
