<svg xmlns="http://www.w3.org/2000/svg" width="64" height="64" viewBox="0 0 64 64" fill="none">
  <title>Hauptrolle class icon</title>
  <circle cx="32" cy="32" r="25" fill="#1F232B" stroke="#E0B84A" stroke-width="3"/>
  <path d="M22 11H42L49 29H15L22 11Z" fill="#3A4452" stroke="#121418" stroke-width="2" stroke-linejoin="round"/>
  <path d="M32 18L36.7 27.4L47 28.8L39.5 35.9L41.6 46L32 41L22.4 46L24.5 35.9L17 28.8L27.3 27.4L32 18Z" fill="#E0B84A" stroke="#121418" stroke-width="2" stroke-linejoin="round"/>
  <path d="M20 47C23.5 50 27.7 52 32 52C36.3 52 40.5 50 44 47" stroke="#E0B84A" stroke-width="3" stroke-linecap="round" opacity="0.9"/>
  <path d="M32 8V13M48 16L44.5 19M16 16L19.5 19" stroke="#E0B84A" stroke-width="2.5" stroke-linecap="round"/>
</svg>