<svg xmlns="http://www.w3.org/2000/svg" width="64" height="64" viewBox="0 0 64 64" fill="none">
  <title>Stuntman class icon</title>
  <path d="M32 6L49 13L56 31L49 49L32 58L15 49L8 31L15 13L32 6Z" fill="#1F232B" stroke="#D85B3E" stroke-width="3" stroke-linejoin="round"/>
  <path d="M18 28C15.8 28 14 29.8 14 32.5C14 36.2 16.6 39 20 39H22V30.5C22 29.1 20.9 28 19.5 28H18Z" fill="#D85B3E" stroke="#121418" stroke-width="2" stroke-linejoin="round"/>
  <rect x="22" y="26" width="24" height="16" rx="5" fill="#D85B3E" stroke="#121418" stroke-width="2"/>
  <rect x="22" y="18" width="6" height="10" rx="2" fill="#F08A67" stroke="#121418" stroke-width="2"/>
  <rect x="28" y="16" width="6" height="12" rx="2" fill="#F08A67" stroke="#121418" stroke-width="2"/>
  <rect x="34" y="16" width="6" height="12" rx="2" fill="#F08A67" stroke="#121418" stroke-width="2"/>
  <rect x="40" y="18" width="6" height="10" rx="2" fill="#F08A67" stroke="#121418" stroke-width="2"/>
  <rect x="22" y="42" width="24" height="8" rx="3" fill="#6E7A88" stroke="#121418" stroke-width="2"/>
  <path d="M22 34H46" stroke="#121418" stroke-width="2" stroke-linecap="round" opacity="0.45"/>
</svg>