<svg xmlns="http://www.w3.org/2000/svg" viewBox="0 0 64 64">

<defs>
  <linearGradient id="frame" x1="0" y1="0" x2="0" y2="1">
    <stop offset="0" stop-color="#7a6648"/>
    <stop offset="1" stop-color="#4a3b2a"/>
  </linearGradient>
  <linearGradient id="glass" x1="0" y1="0" x2="1" y2="1">
    <stop offset="0" stop-color="#bfe9ff" stop-opacity="0.28"/>
    <stop offset="1" stop-color="#e8f8ff" stop-opacity="0.08"/>
  </linearGradient>
</defs>
  <rect x="16" y="50" width="32" height="8" rx="2" fill="#584736"/>
  <rect x="18" y="52" width="28" height="4" rx="1" fill="#76614a"/>
  <rect x="14" y="12" width="36" height="40" rx="2" fill="url(#frame)"/>
  <rect x="18" y="16" width="28" height="32" rx="1" fill="#10151c"/>

  <rect x="21" y="26" width="22" height="14" rx="2" fill="#5a3f2d" stroke="#2f2118" stroke-width="1"/>
  <rect x="24" y="29" width="10" height="7" rx="1" fill="#b4b89a" stroke="#727654" stroke-width="0.8"/>
  <rect x="35" y="28" width="5" height="2.5" rx="0.6" fill="#d5b24b"/>
  <circle cx="37.5" cy="34" r="1.3" fill="#c4b8aa"/>
  <line x1="24" y1="31" x2="33" y2="31" stroke="#6c765e" stroke-width="0.8"/>

  <rect x="24" y="42" width="16" height="4" rx="1" fill="#6b5a45"/>
  <rect x="18" y="16" width="28" height="32" rx="1" fill="url(#glass)" stroke="#d8f3ff" stroke-opacity="0.18" stroke-width="0.8"/>
  <path d="M21 18 L27 18 L21 34 Z" fill="#ffffff" fill-opacity="0.13"/>
  <path d="M29 18 L32 18 L22 44 L19 44 Z" fill="#ffffff" fill-opacity="0.06"/>
</svg>
