<svg xmlns="http://www.w3.org/2000/svg" viewBox="0 0 64 64">

<defs>
  <linearGradient id="frame" x1="0" y1="0" x2="0" y2="1">
    <stop offset="0" stop-color="#7a6648"/>
    <stop offset="1" stop-color="#4a3b2a"/>
  </linearGradient>
  <linearGradient id="glass" x1="0" y1="0" x2="1" y2="1">
    <stop offset="0" stop-color="#bfe9ff" stop-opacity="0.28"/>
    <stop offset="1" stop-color="#e8f8ff" stop-opacity="0.08"/>
  </linearGradient>
</defs>
  <rect x="16" y="50" width="32" height="8" rx="2" fill="#584736"/>
  <rect x="18" y="52" width="28" height="4" rx="1" fill="#76614a"/>
  <rect x="14" y="12" width="36" height="40" rx="2" fill="url(#frame)"/>
  <rect x="18" y="16" width="28" height="32" rx="1" fill="#10151c"/>

  <rect x="22" y="31" width="20" height="9" rx="1.5" fill="#7c3f4d" stroke="#4d2430" stroke-width="1"/>
  <path d="M22 31 Q32 23 42 31" fill="#995061" stroke="#5b2d3a" stroke-width="1"/>
  <circle cx="32" cy="29" r="4" fill="none" stroke="#d8d0c0" stroke-width="1.5"/>
  <path d="M32 22 L33.8 25.2 L37.5 25.8 L34.8 28.2 L35.4 31.7 L32 30 L28.6 31.7 L29.2 28.2 L26.5 25.8 L30.2 25.2 Z"
        fill="#d8f6ff" stroke="#9cc7d5" stroke-width="0.8"/>

  <rect x="24" y="42" width="16" height="4" rx="1" fill="#6b5a45"/>
  <rect x="18" y="16" width="28" height="32" rx="1" fill="url(#glass)" stroke="#d8f3ff" stroke-opacity="0.18" stroke-width="0.8"/>
  <path d="M21 18 L27 18 L21 34 Z" fill="#ffffff" fill-opacity="0.13"/>
  <path d="M29 18 L32 18 L22 44 L19 44 Z" fill="#ffffff" fill-opacity="0.06"/>
</svg>
