<svg xmlns="http://www.w3.org/2000/svg" viewBox="0 0 64 64">

<defs>
  <linearGradient id="frame" x1="0" y1="0" x2="0" y2="1">
    <stop offset="0" stop-color="#7a6648"/>
    <stop offset="1" stop-color="#4a3b2a"/>
  </linearGradient>
  <linearGradient id="glass" x1="0" y1="0" x2="1" y2="1">
    <stop offset="0" stop-color="#bfe9ff" stop-opacity="0.28"/>
    <stop offset="1" stop-color="#e8f8ff" stop-opacity="0.08"/>
  </linearGradient>
</defs>
  <rect x="16" y="50" width="32" height="8" rx="2" fill="#584736"/>
  <rect x="18" y="52" width="28" height="4" rx="1" fill="#76614a"/>
  <rect x="14" y="12" width="36" height="40" rx="2" fill="url(#frame)"/>
  <rect x="18" y="16" width="28" height="32" rx="1" fill="#10151c"/>

  <rect x="22" y="25" width="13" height="10" rx="1" fill="#3d4349" stroke="#1f2327" stroke-width="1"/>
  <circle cx="28.5" cy="30" r="3" fill="#5f6871" stroke="#9fb0bf" stroke-width="0.8"/>
  <rect x="35" y="27" width="5" height="6" rx="1" fill="#535c64"/>
  <rect x="25" y="22" width="5" height="3" fill="#535c64"/>
  <rect x="31" y="22" width="5" height="3" fill="#535c64"/>
  <path d="M25 35 L23 41 M33 35 L35 41" stroke="#8a7454" stroke-width="1.4"/>

  <rect x="24" y="42" width="16" height="4" rx="1" fill="#6b5a45"/>
  <rect x="18" y="16" width="28" height="32" rx="1" fill="url(#glass)" stroke="#d8f3ff" stroke-opacity="0.18" stroke-width="0.8"/>
  <path d="M21 18 L27 18 L21 34 Z" fill="#ffffff" fill-opacity="0.13"/>
  <path d="M29 18 L32 18 L22 44 L19 44 Z" fill="#ffffff" fill-opacity="0.06"/>
</svg>
