<svg xmlns="http://www.w3.org/2000/svg" viewBox="0 0 64 64">

<defs>
  <linearGradient id="frame" x1="0" y1="0" x2="0" y2="1">
    <stop offset="0" stop-color="#816b4c"/>
    <stop offset="1" stop-color="#473727"/>
  </linearGradient>
  <linearGradient id="glass" x1="0" y1="0" x2="1" y2="1">
    <stop offset="0" stop-color="#c8efff" stop-opacity="0.26"/>
    <stop offset="1" stop-color="#f3fbff" stop-opacity="0.06"/>
  </linearGradient>
</defs>
  <rect x="12" y="49" width="40" height="9" rx="2.4" fill="#554230"/>
  <rect x="14" y="51" width="36" height="5" rx="1.3" fill="#786149"/>
  <rect x="11" y="9" width="42" height="42" rx="2.4" fill="url(#frame)"/>
  <rect x="14" y="12" width="36" height="36" rx="1.2" fill="#0f141b"/>

  <path d="M22 35 L28 35 L31 38 L36 38 L36 42 L23 42 Q21 42 21 40 Z" fill="#6a4a2e" stroke="#3e2b1b" stroke-width="1"/>
  <path d="M31 33 L36 33 L40 37 L43 37 L43 42 L31 42 Z" fill="#7b5737" stroke="#46311f" stroke-width="1"/>
  <path d="M23 38 H35 M32 36 H40" stroke="#9d7a56" stroke-width="0.8"/>

  <rect x="21" y="43" width="22" height="4" rx="1" fill="#69553d"/>
  <rect x="14" y="12" width="36" height="36" rx="1.2" fill="url(#glass)" stroke="#d8f3ff" stroke-opacity="0.16" stroke-width="0.8"/>
  <path d="M17 14 L25 14 L17.5 35.5 Z" fill="#ffffff" fill-opacity="0.13"/>
  <path d="M27.5 14 L31 14 L19.5 46 L16 46 Z" fill="#ffffff" fill-opacity="0.055"/>
</svg>
